<svg height="512pt" viewBox="-73 0 512 512.00105" width="512pt" xmlns="http://www.w3.org/2000/svg"><path d="m182.644531 109.640625c-30.226562 0-54.820312-24.589844-54.820312-54.820313 0-30.226562 24.59375-54.820312 54.820312-54.820312 30.230469 0 54.824219 24.59375 54.824219 54.820312 0 30.230469-24.59375 54.820313-54.824219 54.820313zm0-93.882813c-21.539062 0-39.0625 17.523438-39.0625 39.0625 0 21.539063 17.523438 39.0625 39.0625 39.0625 21.539063 0 39.0625-17.523437 39.0625-39.0625 0-21.539062-17.523437-39.0625-39.0625-39.0625zm0 0" fill="#ffe66b"/><path d="m237.121094 119.535156v35.859375h-108.949219v-35.859375c0-15.625 12.667969-28.28125 28.28125-28.28125h52.386719c15.625 0 28.28125 12.65625 28.28125 28.28125zm0 0" fill="#f79e31"/><path d="m237.121094 119.535156v35.859375h-73.078125v-35.859375c0-15.625 12.667969-28.28125 28.28125-28.28125h16.515625c15.625 0 28.28125 12.65625 28.28125 28.28125zm0 0" fill="#ffe66b"/><path d="m365.308594 329.339844c0 2.648437-.050782 5.273437-.167969 7.890625-3.414063 80.386719-58.789063 147.328125-133.410156 168.109375-15.609375 4.339844-32.070313 6.660156-49.070313 6.660156-98.246094 0-178.363281-77.550781-182.480468-174.769531-.1250005-2.617188-.179688-5.242188-.179688-7.890625 0-2.636719.0546875-5.261719.167969-7.867188 4.117187-97.230468 84.234375-174.78125 182.492187-174.78125 8.730469 0 17.324219.609375 25.730469 1.796875 7.960937 1.113281 15.746094 2.75 23.339844 4.863281 69.035156 19.226563 121.59375 77.941407 131.773437 150.28125.839844 5.863282 1.386719 11.808594 1.636719 17.839844.117187 2.605469.167969 5.230469.167969 7.867188zm0 0" fill="#dc4250"/><path d="m363.5 303.636719c-8.574219 51.960937-46.84375 93.890625-96.800781 107.808593-11.523438 3.203126-23.679688 4.917969-36.222657 4.917969-74.472656 0-134.835937-60.375-134.835937-134.839843 0-66.941407 48.785156-122.484376 112.742187-133.03125 7.964844 1.113281 15.75 2.753906 23.34375 4.863281 69.035157 19.226562 121.59375 77.941406 131.773438 150.28125zm0 0" fill="#ef5361"/><g fill="#ffe66b"><path d="m250.390625 329.347656 26.945313-26.945312c3.074218-3.074219 3.074218-8.066406 0-11.140625-3.078126-3.078125-8.066407-3.078125-11.144532 0l-30.210937 30.210937h-20.707031c-.8125-3.398437-2.152344-6.636718-3.980469-9.617187l16.953125-16.953125c3.078125-3.078125 3.078125-8.066406 0-11.140625-3.078125-3.078125-8.066406-3.078125-11.140625 0l-16.953125 16.949219c-2.980469-1.828126-6.21875-3.167969-9.617188-3.984376v-20.714843l30.203125-30.203125c3.078125-3.078125 3.078125-8.066406 0-11.144532-3.078125-3.078124-8.0625-3.078124-11.140625 0l-26.945312 26.945313-26.945313-26.945313c-3.074219-3.078124-8.066406-3.078124-11.140625 0-3.078125 3.078126-3.078125 8.066407 0 11.144532l30.210938 30.210937v20.707031c-3.398438.8125-6.636719 2.15625-9.617188 3.984376l-16.953125-16.953126c-3.074219-3.074218-8.0625-3.074218-11.140625 0-3.078125 3.078126-3.078125 8.066407 0 11.144532l16.949219 16.949218c-1.828125 2.980469-3.167969 6.21875-3.984375 9.617188h-20.707031l-30.210938-30.210938c-3.078125-3.074218-8.066406-3.074218-11.140625 0-3.078125 3.078126-3.078125 8.066407 0 11.144532l26.945313 26.945312-26.945313 26.941406c-3.078125 3.078126-3.078125 8.066407 0 11.144532 1.539063 1.539062 3.554688 2.308594 5.570313 2.308594s4.03125-.769532 5.570312-2.308594l30.207031-30.207032h20.714844c.8125 3.402344 2.15625 6.640626 3.984375 9.621094l-16.953125 16.949219c-3.078125 3.078125-3.078125 8.066406 0 11.144531 1.539063 1.539063 3.554688 2.308594 5.570313 2.308594s4.035156-.769531 5.570312-2.308594l16.964844-16.960937c3.015625 1.839843 6.253906 3.167969 9.601563 3.96875l.003906 20.726562-30.210938 30.210938c-3.074218 3.078125-3.074218 8.066406 0 11.144531 3.078125 3.074219 8.066406 3.074219 11.144532 0l26.945312-26.945312 26.941406 26.945312c1.539063 1.535156 3.554688 2.304688 5.574219 2.304688 2.015625 0 4.03125-.765626 5.570313-2.304688 3.078124-3.078125 3.078124-8.066406 0-11.144531l-30.207032-30.207031-.003906-20.730469c3.347656-.804688 6.59375-2.128907 9.609375-3.972657l16.964844 16.964844c1.539062 1.539063 3.554687 2.308594 5.570312 2.308594 2.019531 0 4.035157-.769531 5.574219-2.308594 3.078125-3.078125 3.078125-8.066406 0-11.144531l-16.957031-16.953125c1.828125-2.980469 3.167969-6.214844 3.980469-9.617188h20.714843l30.207031 30.207032c1.539063 1.539062 3.554688 2.308594 5.570313 2.308594s4.03125-.769532 5.570313-2.308594c3.078124-3.078125 3.078124-8.066406 0-11.144532zm-55.15625 12.582032c-.007813.003906-.007813.007812-.011719.011718-6.929687 6.914063-18.179687 6.917969-25.113281.023438-.011719-.011719-.023437-.023438-.035156-.035156-.011719-.011719-.027344-.023438-.039063-.035157-3.339844-3.355469-5.179687-7.808593-5.179687-12.546875 0-4.753906 1.851562-9.222656 5.210937-12.582031 3.363282-3.359375 7.832032-5.210937 12.585938-5.210937 4.734375 0 9.183594 1.835937 12.539062 5.171874.015625.015626.027344.03125.039063.046876.015625.011718.03125.023437.042969.039062 3.316406 3.335938 5.148437 7.753906 5.167968 12.453125 0 .03125-.003906.058594-.003906.085937 0 .027344.003906.054688.003906.082032-.023437 4.714844-1.863281 9.144531-5.195312 12.484375-.003906.003906-.007813.007812-.011719.011719zm0 0"/><path d="m54.355469 291.261719c-3.078125-3.078125-8.066407-3.078125-11.140625 0l-30.210938 30.210937h-12.835937c-.1132815 2.605469-.167969 5.230469-.167969 7.867188 0 2.648437.0546875 5.273437.179688 7.890625h12.828124l30.207032 30.203125c1.539062 1.539062 3.554687 2.308594 5.570312 2.308594s4.03125-.769532 5.570313-2.308594c3.078125-3.074219 3.078125-8.066406 0-11.140625l-26.945313-26.945313 26.945313-26.945312c3.078125-3.074219 3.078125-8.066406 0-11.140625zm0 0"/><path d="m365.308594 329.339844c0-2.636719-.050782-5.261719-.167969-7.867188h-12.851563l-30.210937-30.210937c-3.078125-3.078125-8.066406-3.078125-11.144531 0s-3.078125 8.066406 0 11.140625l26.945312 26.945312-26.945312 26.945313c-3.078125 3.078125-3.078125 8.066406 0 11.140625 1.539062 1.539062 3.554687 2.308594 5.570312 2.308594 2.019532 0 4.035156-.769532 5.574219-2.308594l30.207031-30.203125h12.859375c.113281-2.617188.164063-5.242188.164063-7.890625zm0 0"/></g></svg>