<svg height="512pt" viewBox="-25 0 512 512" width="512pt" xmlns="http://www.w3.org/2000/svg"><path d="m424.402344 289.296875v55.152344c-.960938 6.726562-2.253906 13.34375-3.867188 19.816406-.667968 2.636719-1.378906 5.253906-2.136718 7.851563-4.371094 14.824218-10.457032 28.925781-18.015626 42.050781-11.558593 20.066406-26.582031 37.871093-44.261718 52.613281-18.511719 15.425781-39.914063 27.507812-63.296875 35.273438-17 5.671874-35.054688 9.046874-53.808594 9.789062-2.59375.105469-5.203125.15625-7.816406.15625-2.617188 0-5.222657-.050781-7.820313-.15625-44.480468-1.75-85.113281-18.386719-117.097656-45.0625-17.6875-14.742188-32.699219-32.546875-44.25-52.613281h-.019531c-12.132813-21.066407-20.472657-44.625-24.019531-69.71875v-55.152344c13.398437-94.726563 94.800781-167.574219 193.207031-167.574219 21.617187 0 42.425781 3.523438 61.867187 10 69.039063 23.078125 120.890625 83.675782 131.335938 157.574219zm0 0" fill="#ffe66b"/><path d="m130.003906 309.113281v-19.816406c11.242188-79.480469 70.34375-143.546875 147.199219-162.121094-14.75-3.566406-30.160156-5.453125-46.003906-5.453125-98.398438 0-179.804688 72.84375-193.203125 167.574219v55.148437c3.539062 25.09375 11.882812 48.660157 24.015625 69.71875h.011719c11.558593 20.074219 26.574218 37.871094 44.257812 52.613282 33.851562 28.234375 77.394531 45.222656 124.917969 45.222656 15.84375 0 31.238281-1.886719 45.976562-5.464844-29.46875-7.125-56.328125-20.941406-78.882812-39.757812-17.683594-14.738282-32.699219-32.539063-44.257813-52.613282h-.019531c-3.761719-6.527343-7.15625-13.292968-10.152344-20.273437-6.023437-14.015625 4.164063-29.628906 19.417969-29.628906h257.25c1.625-6.472657 2.917969-13.085938 3.871094-19.816407v-35.332031zm0 0" fill="#f79e31"/><g fill="#333"><path d="m117.691406 443.835938c0 8.9375-4.351562 17.042968-11.410156 22.941406-17.683594-14.742188-32.699219-32.539063-44.261719-52.613282 4.984375-1.859374 10.488281-2.894531 16.289063-2.894531 21.753906 0 39.382812 14.570313 39.382812 32.566407zm0 0"/><path d="m270.570312 443.84375c0 17.988281-17.628906 32.585938-39.382812 32.585938-21.730469 0-39.359375-14.597657-39.359375-32.585938 0-18.003906 17.628906-32.574219 39.359375-32.574219 21.753906 0 39.382812 14.570313 39.382812 32.574219zm0 0"/><path d="m400.375 414.164062c-11.550781 20.074219-26.582031 37.871094-44.25 52.613282-7.058594-5.898438-11.417969-14.003906-11.417969-22.941406 0-17.996094 17.628907-32.566407 39.359375-32.566407 5.824219 0 11.335938 1.035157 16.308594 2.894531zm0 0"/></g><path d="m231.1875 134.753906c-37.152344 0-67.375-30.226562-67.375-67.375 0-37.152344 30.222656-67.378906 67.375-67.378906 37.167969 0 67.40625 30.226562 67.40625 67.375 0 37.152344-30.238281 67.378906-67.40625 67.378906zm0-119.117187c-28.53125 0-51.742188 23.210937-51.742188 51.738281 0 28.53125 23.210938 51.742188 51.742188 51.742188 28.546875 0 51.769531-23.210938 51.769531-51.742188 0-28.527344-23.222656-51.738281-51.769531-51.738281zm0 0" fill="#f79e31"/><path d="m239.015625 454.832031v57.011719c-2.59375.105469-5.203125.15625-7.816406.15625-2.617188 0-5.222657-.050781-7.820313-.15625v-57.011719c0-4.324219 3.503906-7.816406 7.820313-7.816406 4.3125 0 7.816406 3.492187 7.816406 7.816406zm0 0" fill="#333"/><path d="m462.410156 316.871094c0 4.417968-1.046875 8.578125-2.894531 12.285156-1.332031 2.679688-3.105469 5.125-5.191406 7.210938-5 4.984374-11.878907 8.078124-19.503907 8.078124h-407.253906c-15.214844 0-27.566406-12.34375-27.566406-27.574218 0-7.605469 3.085938-14.503906 8.070312-19.496094 4.992188-4.984375 11.890626-8.078125 19.496094-8.078125h407.253906c15.230469 0 27.589844 12.339844 27.589844 27.574219zm0 0" fill="#f79e31"/><path d="m462.410156 316.871094c0 4.417968-1.046875 8.578125-2.894531 12.285156-1.332031 2.679688-3.105469 5.125-5.191406 7.210938-5 4.984374-11.878907 8.078124-19.503907 8.078124h-326.570312c-15.210938 0-27.574219-12.34375-27.574219-27.574218 0-7.605469 3.09375-14.503906 8.078125-19.496094 4.992188-4.984375 11.890625-8.078125 19.496094-8.078125h326.566406c15.234375 0 27.59375 12.339844 27.59375 27.574219zm0 0" fill="#ffe66b"/></svg>