<svg height="512pt" viewBox="0 0 512 512" width="512pt" xmlns="http://www.w3.org/2000/svg"><path d="m512 142.125v311.621094c0 32.171875-26.082031 58.25-58.261719 58.25h-395.484375c-32.171875 0-58.24999975-26.078125-58.24999975-58.25v-311.621094" fill="#dae6ed"/><path d="m479.691406 213.769531h-447.386718c-17.839844 0-32.304688-14.460937-32.304688-32.304687v-67.039063c0-17.839843 14.464844-32.304687 32.304688-32.304687h447.386718c17.84375 0 32.304688 14.464844 32.304688 32.304687v67.039063c0 17.84375-14.460938 32.304687-32.304688 32.304687zm0 0" fill="#beccd3"/><path d="m479.691406 180.335938h-447.386718c-17.839844 0-32.304688-14.460938-32.304688-32.304688v-67.039062c0-17.839844 14.464844-32.304688 32.304688-32.304688h447.386718c17.84375 0 32.304688 14.464844 32.304688 32.304688v67.039062c0 17.84375-14.460938 32.304688-32.304688 32.304688zm0 0" fill="#ef5361"/><path d="m29.144531 148.03125v-67.039062c0-17.839844 14.464844-32.304688 32.304688-32.304688h-29.144531c-17.839844 0-32.304688 14.464844-32.304688 32.304688v67.039062c0 17.84375 14.464844 32.304688 32.304688 32.304688h29.144531c-17.839844 0-32.304688-14.460938-32.304688-32.304688zm0 0" fill="#dc4250"/><path d="m149.359375 30.5625v58.085938c0 8.441406-3.425781 16.082031-8.953125 21.617187-5.527344 5.527344-13.175781 8.945313-21.609375 8.945313-16.886719 0-30.5625-13.675782-30.5625-30.5625v-58.085938c0-16.875 13.675781-30.5625 30.5625-30.5625 16.875 0 30.5625 13.6875 30.5625 30.5625zm0 0" fill="#f79e31"/><path d="m423.769531 30.5625v58.085938c0 8.441406-3.425781 16.082031-8.953125 21.617187-5.527344 5.527344-13.179687 8.945313-21.609375 8.945313-16.886719 0-30.5625-13.675782-30.5625-30.5625v-58.085938c0-16.875 13.675781-30.5625 30.5625-30.5625 16.875 0 30.5625 13.6875 30.5625 30.5625zm0 0" fill="#f79e31"/><path d="m149.359375 30.5625v20.429688c0 8.429687-3.425781 16.078124-8.953125 21.605468s-13.175781 8.957032-21.609375 8.957032c-16.886719 0-30.5625-13.6875-30.5625-30.5625v-20.429688c0-16.875 13.675781-30.5625 30.5625-30.5625 16.875 0 30.5625 13.6875 30.5625 30.5625zm0 0" fill="#ffe66b"/><path d="m423.769531 30.5625v20.429688c0 8.429687-3.425781 16.078124-8.953125 21.605468s-13.179687 8.957032-21.609375 8.957032c-16.886719 0-30.5625-13.6875-30.5625-30.5625v-20.429688c0-16.875 13.675781-30.5625 30.5625-30.5625 16.875 0 30.5625 13.6875 30.5625 30.5625zm0 0" fill="#ffe66b"/><path d="m256 487.722656c-4.328125 0-7.835938-3.507812-7.835938-7.835937v-35.097657c0-4.328124 3.507813-7.835937 7.835938-7.835937s7.835938 3.507813 7.835938 7.835937v35.097657c0 4.328125-3.507813 7.835937-7.835938 7.835937zm0 0" fill="#935d35"/><path d="m339.410156 419.929688c-10.65625-12.390626-21.414062-25.195313-32.234375-38.40625 2.914063-.410157 5.824219-.84375 8.722657-1.324219 11.996093-1.984375 17.636718-12.695313 10.828124-20.609375-12.007812-13.960938-24.171874-28.550782-36.402343-43.742188 3.953125-.484375 7.894531-1.042968 11.816406-1.695312 9.238281-1.527344 13.582031-9.777344 8.339844-15.875-14.15625-16.457032-28.582031-34.023438-43.066407-52.695313-5.171874-6.667969-17.65625-6.667969-22.828124 0-14.484376 18.671875-28.910157 36.238281-43.070313 52.695313-5.242187 6.097656-.898437 14.347656 8.34375 15.875 3.921875.652344 7.863281 1.210937 11.816406 1.695312-12.230469 15.191406-24.394531 29.777344-36.402343 43.742188-6.808594 7.914062-1.167969 18.625 10.828124 20.609375 2.898438.480469 5.808594.914062 8.722657 1.324219-10.816407 13.207031-21.578125 26.015624-32.234375 38.40625-8.027344 9.332031-1.378906 21.960937 12.769531 24.304687 46.566406 7.707031 94.714844 7.707031 141.28125 0 14.148437-2.34375 20.796875-14.972656 12.769531-24.304687zm0 0" fill="#4dc168"/><path d="m224.5625 444.234375c10.355469 3.855469 20.898438 5.789063 31.441406 5.789063-23.679687 0-47.355468-1.933594-70.644531-5.789063-14.148437-2.339844-20.796875-14.972656-12.769531-24.304687 10.65625-12.390626 21.417968-25.191407 32.234375-38.410157-2.914063-.40625-5.820313-.835937-8.726563-1.316406-11.992187-1.984375-17.636718-12.695313-10.824218-20.613281 12.007812-13.960938 24.167968-28.546875 36.40625-43.742188-3.960938-.480468-7.902344-1.042968-11.820313-1.691406-9.246094-1.527344-13.582031-9.78125-8.347656-15.871094 14.15625-16.46875 28.589843-34.03125 43.070312-52.707031 2.582031-3.332031 7-4.992187 11.421875-4.992187-1.964844 0-3.929687 1.660156-5.089844 4.992187-6.445312 18.675781-12.863281 36.238281-19.164062 52.707031-2.328125 6.089844-.394531 14.34375 3.710938 15.871094 1.742187.648438 3.5 1.210938 5.265624 1.691406-5.445312 15.195313-10.867187 29.78125-16.207031 43.742188-3.03125 7.917968-.523437 18.628906 4.816407 20.613281 1.296874.480469 2.59375.910156 3.886718 1.316406-4.816406 13.21875-9.601562 26.019531-14.34375 38.410157-3.574218 9.332031-.617187 21.964843 5.683594 24.304687zm0 0" fill="#3dad52"/></svg>