<?xml version="1.0" encoding="UTF-8" standalone="no"?>
<svg
   xmlns:dc="http://purl.org/dc/elements/1.1/"
   xmlns:cc="http://creativecommons.org/ns#"
   xmlns:rdf="http://www.w3.org/1999/02/22-rdf-syntax-ns#"
   xmlns:svg="http://www.w3.org/2000/svg"
   xmlns="http://www.w3.org/2000/svg"
   xmlns:sodipodi="http://sodipodi.sourceforge.net/DTD/sodipodi-0.dtd"
   xmlns:inkscape="http://www.inkscape.org/namespaces/inkscape"
   height="32pt"
   viewBox="-64 0 32 32"
   width="32pt"
   id="svg4489"
   version="1.1"
   inkscape:version="0.91 r13725"
   sodipodi:docname="012-candle-sm.svg">
  <metadata
     id="metadata4519">
    <rdf:RDF>
      <cc:Work
         rdf:about="">
        <dc:format>image/svg+xml</dc:format>
        <dc:type
           rdf:resource="http://purl.org/dc/dcmitype/StillImage" />
        <dc:title></dc:title>
      </cc:Work>
    </rdf:RDF>
  </metadata>
  <defs
     id="defs4517" />
  <sodipodi:namedview
     pagecolor="#ffffff"
     bordercolor="#666666"
     borderopacity="1"
     objecttolerance="10"
     gridtolerance="10"
     guidetolerance="10"
     inkscape:pageopacity="0"
     inkscape:pageshadow="2"
     inkscape:window-width="1325"
     inkscape:window-height="747"
     id="namedview4515"
     showgrid="false"
     inkscape:zoom="6.9601562"
     inkscape:cx="5.3837526"
     inkscape:cy="24.386013"
     inkscape:window-x="41"
     inkscape:window-y="21"
     inkscape:window-maximized="1"
     inkscape:current-layer="svg4489" />
  <g
     id="g5061"
     transform="matrix(0.06103188,0,0,0.06103188,-58.964193,29.8171)">
    <path
       style="fill:#4c4c4c"
       inkscape:connector-curvature="0"
       id="path4491"
       d="m 142.62891,-349.57813 22.02734,0 0,36.71094 -22.02734,0 z m 0,0" />
    <path
       style="fill:#ffe66b"
       inkscape:connector-curvature="0"
       id="path4493"
       d="m 270.05859,-311.47656 0,269.64062 -232.832028,0 0,-249.92187 z m 0,0" />
    <path
       style="fill:#f79e31"
       inkscape:connector-curvature="0"
       id="path4495"
       d="m 105.01563,-311.47656 0,269.63672 -67.789068,0 0,-249.92579" />
    <path
       style="fill:#f79e31"
       inkscape:connector-curvature="0"
       id="path4497"
       d="m 270.05859,-311.47656 0,102.63672 c -5.55859,4.67968 -12.72265,7.48828 -20.54687,7.48828 -17.65234,0 -31.95703,-14.30469 -31.95703,-31.95703 l 0,-3.17578 c 0,-17.65235 -14.30469,-31.96094 -31.95703,-31.96094 -17.65235,0 -31.96094,14.30859 -31.96094,31.96094 l 0,48.36718 c 0,8.82032 -3.57422,16.80469 -9.35547,22.59375 -5.77734,5.77735 -13.76953,9.35547 -22.58984,9.35547 -17.65235,0 -31.960941,-14.30859 -31.960941,-31.94922 l 0,-10.02734 c 0,-17.65234 -14.304688,-31.95703 -31.957031,-31.95703 -7.824219,0 -14.996094,-2.8125 -20.546876,-7.47656 l 0,-79.40235 z m 0,0" />
    <path
       style="fill:#9fd661"
       inkscape:connector-curvature="0"
       id="path4499"
       d="m 339.01562,-43.40234 -36.97265,0 c -4.34375,0 -7.86328,-3.51954 -7.86328,-7.86329 l 0,-120.34765 c 0,-24.72266 20.11328,-44.83594 44.83593,-44.83594 24.72266,0 44.83594,20.11328 44.83594,44.83594 l 0,83.375 c 0,24.72265 -20.11328,44.83594 -44.83594,44.83594 z m -29.10546,-15.73047 29.10546,0 c 16.04688,0 29.10157,-13.0586 29.10157,-29.10547 l 0,-83.375 c 0,-16.05078 -13.05469,-29.10547 -29.10157,-29.10547 -16.05078,0 -29.10546,13.05469 -29.10546,29.10547 z m 0,0" />
    <path
       style="fill:#dae6ed"
       inkscape:connector-curvature="0"
       id="path4501"
       d="m 238.69922,-336.53906 -170.117189,0 c -23.617187,0 -42.761719,19.14453 -42.761719,42.76172 l 0,4.97265 c 0,17.65235 14.308594,31.95703 31.957032,31.95703 17.648437,0 31.953125,14.3086 31.953125,31.95313 l 0,10.03125 c 0,17.64844 14.308591,31.95312 31.957031,31.95312 17.64844,0 31.95312,-14.30468 31.95312,-31.95312 l 0,-48.3711 c 0,-17.64843 14.3086,-31.95703 31.95704,-31.95703 17.64453,0 31.95312,14.3086 31.95312,31.95703 l 0,3.1836 c 0,17.64844 14.30859,31.95703 31.95703,31.95703 17.64453,0 31.95313,-14.30859 31.95313,-31.95703 l 0,-33.72656 c 0.004,-23.61719 -19.14453,-42.76172 -42.76172,-42.76172 z m 0,0" />
    <path
       style="fill:#beccd3"
       inkscape:connector-curvature="0"
       id="path4503"
       d="m 134.00781,-185.37109 c -3.79687,1.58203 -7.96093,2.46484 -12.32422,2.46484 -17.64843,0 -31.957028,-14.30859 -31.957028,-31.95703 l 0,-10.02735 c 0,-17.65234 -14.304687,-31.96093 -31.945312,-31.96093 -17.652344,0 -31.960938,-14.30469 -31.960938,-31.94532 l 0,-4.98437 c 0,-23.60938 19.140626,-42.75781 42.761719,-42.75781 l 24.648438,0 c -23.621094,0 -42.761719,19.14843 -42.761719,42.75781 l 0,4.98437 c 0,17.64063 14.304688,31.94532 31.957031,31.94532 17.644529,0 31.949219,14.30859 31.949219,31.96093 l 0,10.02735 c 0,13.27734 8.09766,24.66797 19.63281,29.49219 z m 0,0" />
    <path
       style="fill:#beccd3"
       inkscape:connector-curvature="0"
       id="path4505"
       d="m 261.64062,-230.48047 c -3.73046,1.53125 -7.83203,2.37891 -12.12109,2.37891 -17.65234,0 -31.96094,-14.30469 -31.96094,-31.94532 l 0,-3.1914 c 0,-13.35156 -8.1914,-24.79297 -19.82031,-29.56641 3.73047,-1.53906 7.83203,-2.39062 12.12109,-2.39062 17.65235,0 31.96094,14.30859 31.96094,31.95703 l 0,3.1914 c 0,13.35157 8.19141,24.78125 19.82031,29.56641 z m 0,0" />
    <path
       style="fill:#ef5361"
       inkscape:connector-curvature="0"
       id="path4507"
       d="m 123.19141,-420.33203 c 0,24.53906 12.0039,46.26953 30.44921,59.66406 18.44922,-13.39844 30.45313,-35.125 30.45313,-59.66406 0,-24.54297 -12.00391,-46.26953 -30.45313,-59.66797 -18.44531,13.39844 -30.44921,35.125 -30.44921,59.66797 z m 0,0" />
    <path
       style="fill:#ffe66b"
       inkscape:connector-curvature="0"
       id="path4509"
       d="m 134.52344,-398.125 c 0,15.40625 7.53906,29.04688 19.11718,37.45703 11.58204,-8.41015 19.11719,-22.05078 19.11719,-37.45703 0,-15.40625 -7.53515,-29.04687 -19.11719,-37.45703 -11.57812,8.41016 -19.11718,22.05078 -19.11718,37.45703 z m 0,0" />
    <path
       style="fill:#8bc34c"
       inkscape:connector-curvature="0"
       id="path4511"
       d="m 309.91016,-59.13281 0,16.42578 C 309.91016,-1.44922 276.46484,32 235.20312,32 L 74.699219,32 C 33.449219,32 0,-1.44922 0,-42.70703 l 0,-16.42578 z m 0,0" />
    <path
       style="fill:#9fd661"
       inkscape:connector-curvature="0"
       id="path4513"
       d="m 309.91016,-59.13281 0,16.42578 C 309.91016,-1.44922 276.46484,32 235.20312,32 l -87.55859,0 c -41.25,0 -74.699218,-33.44922 -74.699218,-74.70703 l 0,-16.42578 z m 0,0" />
  </g>
</svg>
