<svg height="512pt" viewBox="0 -16 512.00109 512" width="512pt" xmlns="http://www.w3.org/2000/svg"><path d="m165.25 366.601562c-26.160156-26.160156-60.835938-31.039062-81.042969-31.382812-8.746093-.152344-16.34375-6.039062-18.539062-14.507812-7.464844-28.800782-34.738281-50.082032-55.890625-62.210938-8.773438-5.027344-12.21875-15.898438-7.957032-25.066406 8.902344-19.144532 21.117188-51.757813 18.269532-81.851563-1.128906-11.902343 8.984375-22.015625 20.890625-20.890625 30.089843 2.847656 62.707031-9.367187 81.851562-18.269531 9.167969-4.261719 20.039063-.816406 25.066407 7.957031 12.128906 21.152344 33.410156 48.425782 62.210937 55.890625 8.46875 2.195313 14.355469 9.792969 14.507813 18.539063.34375 20.207031 5.222656 54.882812 31.382812 81.042968" fill="#3dad52"/><path d="m346.75 366.601562c26.160156-26.160156 60.839844-31.039062 81.042969-31.382812 8.746093-.152344 16.347656-6.039062 18.539062-14.507812 7.464844-28.800782 34.738281-50.082032 55.890625-62.210938 8.773438-5.027344 12.21875-15.898438 7.957032-25.066406-8.898438-19.144532-21.117188-51.757813-18.265626-81.851563 1.125-11.902343-8.988281-22.015625-20.890624-20.890625-30.09375 2.847656-62.707032-9.367187-81.855469-18.269531-9.167969-4.261719-20.035157-.816406-25.066407 7.957031-12.125 21.152344-33.410156 48.425782-62.210937 55.890625-8.46875 2.195313-14.355469 9.792969-14.503906 18.539063-.347657 20.207031-5.226563 54.882812-31.386719 81.042968" fill="#3dad52"/><g fill="#4dc168"><path d="m320.171875 261.597656c0-36.996094 21.070313-64.964844 35.113281-79.5 6.078125-6.289062 7.289063-15.824218 2.851563-23.367187-15.089844-25.640625-10.851563-59.976563-4.46875-83.507813 2.648437-9.761718-2.605469-19.882812-12.101563-23.351562-19.832031-7.242188-51.53125-21.667969-70.792968-44.960938-7.621094-9.214844-21.921876-9.214844-29.542969 0-19.265625 23.292969-50.964844 37.71875-70.792969 44.960938-9.5 3.46875-14.75 13.589844-12.101562 23.351562 6.382812 23.53125 10.617187 57.867188-4.46875 83.507813-4.4375 7.542969-3.226563 17.078125 2.851562 23.367187 14.039062 14.535156 35.113281 42.503906 35.113281 79.5v77.8125h122.191407zm0 0"/><path d="m460.804688 206.128906-25.203126-7.449218 21.246094-21.25c3.105469-3.101563 3.105469-8.132813 0-11.234376-3.101562-3.105468-8.132812-3.105468-11.234375 0l-21.25 21.246094-7.449219-25.203125c-1.242187-4.207031-5.65625-6.609375-9.871093-5.367187-4.207031 1.242187-6.609375 5.664062-5.367188 9.871094l9.898438 33.492187-33.476563 33.476563-7.449218-25.203126c-1.246094-4.207031-5.664063-6.613281-9.871094-5.367187-4.210938 1.242187-6.613282 5.660156-5.371094 9.871094l9.902344 33.492187-61.984375 61.984375c-3.105469 3.101563-3.105469 8.132813 0 11.234375 1.550781 1.550782 3.582031 2.328125 5.617187 2.328125 2.03125 0 4.066406-.777343 5.617188-2.328125l61.984375-61.984375 33.492187 9.898438c.75.222656 1.507813.328125 2.253906.328125 3.429688 0 6.59375-2.238282 7.617188-5.695313 1.242188-4.207031-1.160156-8.628906-5.367188-9.871093l-25.207031-7.449219 33.480469-33.476563 33.488281 9.898438c.753907.222656 1.511719.328125 2.257813.328125 3.429687 0 6.59375-2.238281 7.617187-5.695313 1.242188-4.210937-1.160156-8.632812-5.371093-9.875zm0 0"/><path d="m146.695312 246.5 9.898438-33.492188c1.242188-4.207031-1.160156-8.628906-5.367188-9.871093-4.210937-1.246094-8.628906 1.160156-9.871093 5.367187l-7.449219 25.207032-33.480469-33.480469 9.898438-33.492188c1.246093-4.207031-1.15625-8.628906-5.367188-9.871093-4.207031-1.246094-8.628906 1.160156-9.871093 5.367187l-7.449219 25.207031-21.246094-21.25c-3.105469-3.101562-8.136719-3.101562-11.238281 0-3.101563 3.105469-3.101563 8.136719 0 11.238282l21.25 21.246093-25.207032 7.449219c-4.210937 1.246094-6.613281 5.664062-5.367187 9.871094 1.019531 3.457031 4.183594 5.695312 7.613281 5.695312.746094 0 1.503906-.105468 2.257813-.328125l33.492187-9.898437 33.476563 33.480468-25.207031 7.449219c-4.207032 1.242188-6.609376 5.664063-5.367188 9.871094 1.023438 3.457031 4.1875 5.695313 7.617188 5.695313.746093 0 1.503906-.105469 2.253906-.328126l33.492187-9.898437 50.753907 50.75c1.550781 1.550781 3.585937 2.328125 5.617187 2.328125s4.066406-.773438 5.617187-2.328125c3.105469-3.101563 3.105469-8.132813 0-11.234375zm0 0"/><path d="m372.316406 471.4375s-46.054687.582031-62.398437-15.761719h-107.828125c-16.34375 16.34375-62.398438 15.761719-62.398438 15.761719-11.820312-25.289062-7.976562-51.550781-4.035156-66.390625 2.011719-7.554687 4.035156-12.152344 4.035156-12.152344l8.085938-11.941406c25.148437-37.109375 64.75-56.242187 104.753906-57.226563 2.316406-.054687 4.628906-.054687 6.9375.011719 38.773438 1.078125 77.175781 19.214844 102.421875 54.558594l10.425781 14.597656s2.035156 4.597657 4.035156 12.160157c3.941407 14.84375 7.785157 41.09375-4.035156 66.382812zm0 0"/></g><path d="m257.625 350.582031c0 5.277344-.5625 10.414063-1.621094 15.371094-7.054687 33.023437-36.402344 57.78125-71.519531 57.78125-18.773437 0-35.882813-7.066406-48.828125-18.6875 2.011719-7.554687 4.035156-12.152344 4.035156-12.152344l8.085938-11.941406c25.148437-37.109375 64.75-56.242187 104.753906-57.226563 1.460938 3.6875 2.625 7.53125 3.472656 11.492188 1.058594 4.949219 1.621094 10.097656 1.621094 15.363281zm0 0" fill="#3dad52"/><path d="m376.351562 405.054688c-12.945312 11.613281-30.066406 18.679687-48.828124 18.679687-35.117188 0-64.464844-24.757813-71.519532-57.78125-1.058594-4.957031-1.621094-10.09375-1.621094-15.371094 0-5.265625.5625-10.414062 1.621094-15.363281.847656-3.960938 2.011719-7.796875 3.464844-11.480469 38.773438 1.078125 77.175781 19.214844 102.421875 54.558594l10.425781 14.597656s2.035156 4.597657 4.035156 12.160157zm0 0" fill="#3dad52"/><path d="m294.628906 139.597656c3.855469-2.09375 5.28125-6.917968 3.183594-10.773437s-6.921875-5.28125-10.773438-3.183594l-23.09375 12.554687v-47.34375l30.683594-16.683593c3.855469-2.097657 5.28125-6.921875 3.183594-10.777344s-6.921875-5.28125-10.773438-3.183594l-23.09375 12.554688v-30.050781c0-4.386719-3.554687-7.945313-7.945312-7.945313-4.386719 0-7.945312 3.558594-7.945312 7.945313v30.050781l-23.089844-12.558594c-3.855469-2.097656-8.679688-.667969-10.777344 3.1875-2.09375 3.855469-.667969 8.679687 3.1875 10.773437l30.679688 16.683594v47.347656l-23.089844-12.558593c-3.855469-2.097657-8.679688-.667969-10.777344 3.183593-2.09375 3.855469-.667969 8.679688 3.1875 10.777344l30.679688 16.683594v47.347656l-23.089844-12.558594c-3.855469-2.097656-8.679688-.667968-10.777344 3.1875-2.09375 3.851563-.667969 8.675782 3.1875 10.773438l30.679688 16.683594v145.363281c0 4.390625 3.558593 7.945313 7.945312 7.945313s7.945312-3.554688 7.945312-7.945313v-145.363281l30.679688-16.683594c3.855469-2.097656 5.28125-6.921875 3.1875-10.773438-2.097656-3.855468-6.921875-5.28125-10.777344-3.183593l-23.089844 12.554687v-47.347656zm0 0" fill="#3dad52"/><path d="m329.152344 406.246094c0 40.398437-32.75 73.144531-73.144532 73.144531-40.398437 0-73.148437-32.746094-73.148437-73.144531 0-40.398438 32.75-73.144532 73.148437-73.144532 40.394532 0 73.144532 32.746094 73.144532 73.144532zm0 0" fill="#ef5361"/><path d="m230.5625 406.246094c0-32.042969 20.613281-59.253906 49.292969-69.148438-7.476563-2.578125-15.496094-3.996094-23.847657-3.996094-40.398437 0-73.148437 32.746094-73.148437 73.144532 0 40.398437 32.75 73.148437 73.148437 73.148437 8.351563 0 16.371094-1.421875 23.847657-4-28.683594-9.894531-49.292969-37.105469-49.292969-69.148437zm0 0" fill="#dc4250"/><path d="m257.628906 333.105469c0 40.398437-32.75 73.144531-73.144531 73.144531-40.398437 0-73.148437-32.746094-73.148437-73.144531 0-40.398438 32.75-73.148438 73.148437-73.148438 40.394531 0 73.144531 32.75 73.144531 73.148438zm0 0" fill="#ef5361"/><path d="m400.675781 333.105469c0 40.398437-32.75 73.144531-73.148437 73.144531-40.394532 0-73.144532-32.746094-73.144532-73.144531 0-40.398438 32.75-73.148438 73.144532-73.148438 40.398437 0 73.148437 32.75 73.148437 73.148438zm0 0" fill="#ef5361"/><path d="m302.082031 333.105469c0-32.042969 20.613281-59.257813 49.296875-69.148438-7.476562-2.578125-15.496094-3.996093-23.851562-3.996093-40.394532 0-73.144532 32.746093-73.144532 73.144531 0 40.398437 32.746094 73.148437 73.144532 73.148437 8.355468 0 16.375-1.421875 23.851562-4-28.683594-9.894531-49.296875-37.105468-49.296875-69.148437zm0 0" fill="#dc4250"/><path d="m159.039062 333.105469c0-32.042969 20.613282-59.257813 49.296876-69.148438-7.480469-2.578125-15.5-3.996093-23.851563-3.996093-40.398437 0-73.144531 32.746093-73.144531 73.144531 0 40.398437 32.746094 73.148437 73.144531 73.148437 8.351563 0 16.371094-1.421875 23.851563-4-28.683594-9.894531-49.296876-37.105468-49.296876-69.148437zm0 0" fill="#dc4250"/></svg>