<svg xmlns="http://www.w3.org/2000/svg" xmlns:xlink="http://www.w3.org/1999/xlink" xmlns:fi="http://pattern.flaticon.com/" x="0" y="0" width="300" height="150" viewBox="0 0 700 350"><rect x="0px" y="0px" width="100%" height="100%" opacity="0" fill="#ffffff"/><defs><g transform="matrix(0.07584430277347565 0 0 0.07584430277347565 164.94336025401833 61.5838432194962)" id="L1_0"><path d="m243.894531 500.03125c-16.628906 7.980469-34.628906 11.96875-52.621093 11.96875-3.78125 0-7.570313-.179688-11.339844-.535156-14.15625-1.316406-28.148438-5.128906-41.277344-11.433594l6.984375-40.253906 52.96875-26.527344 38.300781 26.527344 3.277344 18.890625zm0 0" fill="#7f4a26"/><path d="m243.894531 500.03125c-16.628906 7.980469-34.628906 11.96875-52.621093 11.96875-3.78125 0-7.570313-.179688-11.339844-.535156v-32.796875h60.253906zm0 0" fill="#935d35"/><path d="m346.824219 448.414062c-102.539063 16.972657-208.550781 16.972657-311.085938 0-31.152343-5.152343-45.792969-32.964843-28.117187-53.507812 15.9375-18.535156 31.96875-37.46875 48.074218-56.828125 32.148438-38.621094 64.589844-78.894531 97.101563-120.820313 17.4375-22.472656 59.53125-22.472656 76.964844 0 32.515625 41.925782 64.957031 82.199219 97.101562 120.820313 16.105469 19.359375 32.136719 38.292969 48.078125 56.828125 17.675782 20.542969 3.023438 48.355469-28.117187 53.507812zm0 0" fill="#9fd661"/><path d="m326.863281 338.078125c-1.191406.300781-2.425781.554687-3.695312.761719-86.945313 14.386718-176.84375 14.386718-263.785157 0-1.257812-.207032-2.492187-.460938-3.6875-.761719 32.148438-38.621094 64.589844-78.894531 97.101563-120.820313 17.4375-22.472656 59.53125-22.472656 76.964844 0 32.515625 41.925782 64.957031 82.199219 97.101562 120.820313zm0 0" fill="#8bc34c"/><path d="m323.167969 307.425781c-86.945313 14.386719-176.84375 14.386719-263.785157 0-26.410156-4.375-38.820312-27.957031-23.835937-45.371093 19.730469-22.945313 39.636719-46.632813 59.65625-71.082032 21.058594-25.6875 42.234375-52.210937 63.449219-79.5625 14.773437-19.058594 50.472656-19.058594 65.257812 0 21.214844 27.351563 42.378906 53.875 63.433594 79.5625 20.023438 24.449219 39.941406 48.136719 59.667969 71.082032 14.984375 17.414062 2.566406 40.996093-23.84375 45.371093zm0 0" fill="#9fd661"/><path d="m287.34375 190.972656c-63.402344 9.90625-128.734375 9.90625-192.140625 0 21.058594-25.6875 42.234375-52.210937 63.449219-79.5625 14.773437-19.058594 50.472656-19.058594 65.257812 0 21.214844 27.351563 42.378906 53.875 63.433594 79.5625zm0 0" fill="#8bc34c"/><path d="m166.140625 11.011719c-31.886719 41.113281-63.652344 79.792969-94.828125 116.035156-11.542969 13.421875-1.976562 31.585937 18.367188 34.953125 66.972656 11.085938 136.222656 11.085938 203.199218 0 20.34375-3.367188 29.90625-21.53125 18.363282-34.953125-31.171876-36.242187-62.941407-74.921875-94.828126-116.035156-11.386718-14.683594-38.882812-14.683594-50.273437 0zm0 0" fill="#9fd661"/><g fill="#8bc34c"><path d="m189.246094.0351562v.0117188s-96.273438 162.191406-47.570313 168.277344c-17.433593-1.371094-34.796875-3.488281-52-6.335938-20.347656-3.363281-29.917969-21.53125-18.367187-34.953125 31.171875-36.242187 62.933594-74.914062 94.828125-116.035156 5.289062-6.828125 14.085937-10.492188 23.109375-10.9648438zm0 0"/><path d="m154.796875 194.660156-20.417969 61.246094-19.800781 58.671875c-18.496094-1.75-36.914063-4.136719-55.195313-7.164063-26.410156-4.363281-38.828124-27.945312-23.84375-45.371093 18.1875-21.152344 36.535157-42.945313 54.984376-65.363281 4.902343-5.957032 9.8125-11.96875 14.722656-18.019532zm0 0"/><path d="m106.355469 457.367188c.011719 0 .023437.011718.03125.011718-23.675781-2.105468-47.257813-5.089844-70.660157-8.964844-31.140624-5.164062-45.792968-32.972656-28.117187-53.519531 14.578125-16.941406 29.226563-34.230469 43.9375-51.867187 8.996094-10.761719 18.003906-21.652344 27.027344-32.679688l1.058593-1.664062 51.605469 28.902344s-98.453125 98.210937-24.882812 119.78125zm0 0"/></g><path d="m136.328125 330.492188c0 21.683593-17.578125 39.265624-39.265625 39.265624-21.683594 0-39.265625-17.582031-39.265625-39.265624 0-21.6875 17.582031-39.265626 39.265625-39.265626 21.6875 0 39.265625 17.578126 39.265625 39.265626zm0 0" fill="#ef5361"/><path d="m325.125 230.570312c0 21.6875-17.582031 39.265626-39.265625 39.265626-21.6875 0-39.269531-17.578126-39.269531-39.265626 0-21.683593 17.582031-39.265624 39.269531-39.265624 21.683594 0 39.265625 17.582031 39.265625 39.265624zm0 0" fill="#ef5361"/><path d="m183.519531 80.214844c0 21.6875-17.582031 39.265625-39.265625 39.265625-21.6875 0-39.265625-17.578125-39.265625-39.265625 0-21.683594 17.578125-39.265625 39.265625-39.265625 21.683594 0 39.265625 17.582031 39.265625 39.265625zm0 0" fill="#ef5361"/><path d="m109.226562 367.824219c-3.820312 1.257812-7.914062 1.929687-12.15625 1.929687-21.6875 0-39.269531-17.582031-39.269531-39.257812 0-21.6875 17.582031-39.269532 39.269531-39.269532 4.242188 0 8.335938.671876 12.15625 1.925782-15.726562 5.121094-27.097656 19.90625-27.097656 37.34375 0 17.433594 11.371094 32.210937 27.097656 37.328125zm0 0" fill="#dc4250"/><path d="m298.027344 267.90625c-3.832032 1.257812-7.914063 1.925781-12.167969 1.925781-21.683594 0-39.265625-17.570312-39.265625-39.257812 0-21.683594 17.582031-39.265625 39.265625-39.265625 4.253906 0 8.335937.667968 12.167969 1.925781-15.726563 5.121094-27.097656 19.90625-27.097656 37.339844 0 17.4375 11.371093 32.222656 27.097656 37.332031zm0 0" fill="#dc4250"/><path d="m156.421875 117.558594c-3.832031 1.253906-7.925781 1.925781-12.167969 1.925781-21.683594 0-39.265625-17.582031-39.265625-39.269531 0-21.683594 17.582031-39.265625 39.265625-39.265625 4.242188 0 8.335938.667969 12.167969 1.925781-15.726563 5.121094-27.097656 19.90625-27.097656 37.339844 0 17.4375 11.371093 32.222656 27.097656 37.34375zm0 0" fill="#dc4250"/></g><g transform="matrix(0.06484949588775635 0 0 0.06484949588775635 193.82470767165853 166.42475156486034)" id="L1_1"><path d="m332.210938 495.21875c-22.371094 22.371094-58.644532 22.371094-81.015626 0l-200.132812-200.136719c-67.417969-67.414062-67.417969-177.105469 0-244.519531 67.414062-67.417969 177.105469-67.414062 244.519531 0l8.101563 8.101562c22.371094 22.371094 22.371094 58.644532 0 81.015626-22.371094 22.371093-58.644532 22.371093-81.015625 0l-8.101563-8.101563c-22.742187-22.742187-59.746094-22.742187-82.488281 0s-22.742187 59.746094 0 82.488281l200.132813 200.136719c22.371093 22.371094 22.371093 58.640625 0 81.015625zm0 0" fill="#ef5361"/><path d="m271.082031 475.332031-200.136719-200.132812c-64.066406-64.070313-67.242187-166.316407-9.535156-234.175781-3.546875 3.015624-7 6.1875-10.347656 9.535156-67.417969 67.417968-67.417969 177.109375 0 244.523437l200.132812 200.132813c22.371094 22.375 58.644532 22.375 81.015626 0 3.429687-3.429688 6.332031-7.191406 8.710937-11.175782-22 13.132813-50.898437 10.234376-69.839844-8.707031zm0 0" fill="#dc4250"/><path d="m242.554688 119.792969-8.101563-8.101563c-22.742187-22.742187-59.746094-22.742187-82.488281 0-3.429688 3.429688-6.332032 7.183594-8.726563 11.164063 22.417969-13.496094 52.015625-10.59375 71.328125 8.722656l8.101563 8.101563c22.375 22.371093 58.644531 22.371093 81.019531 0 3.429688-3.433594 6.328125-7.191407 8.707031-11.175782-21.996093 13.128906-50.898437 10.230469-69.839843-8.710937zm0 0" fill="#dc4250"/><g fill="#dae6ed"><path d="m310.003906 391.996094 22.207032 22.203125c22.375 22.375 22.375 58.644531 0 81.019531s-58.640626 22.375-81.015626 0l-22.941406-22.941406c-30.933594-73.652344 114.894532-47.140625 81.75-80.28125zm0 0"/><path d="m148.855469 230.847656 77.503906 77.5c33.144531 33.144532-112.6875 6.628906-81.753906 80.28125l-77.503907-77.503906c-30.929687-73.652344 114.898438-47.136719 81.753907-80.277344zm0 0"/><path d="m149.171875 119.726562c-6.199219 2.816407-12.003906 6.761719-17.09375 11.851563-11.328125 11.328125-17.011719 26.191406-17.050781 41.074219 0 .015625-.007813.023437-.007813.039062-8.902343 43.386719-80.140625-59.667968-114.46875 3.636719-.925781-45.429687 15.910157-91.167969 50.511719-125.769531 7.453125-7.453125 15.414062-14.074219 23.78125-19.875.007812-.007813.015625 0 .023438-.007813 49.382812-19.140625 40.117187 94.710938 74.304687 89.050781zm0 0"/></g><path d="m340.917969 484.039062c-.007813.019532-.023438.035157-.023438.066407-2.371093 3.960937-5.265625 7.695312-8.683593 11.113281-22.375 22.375-58.640626 22.375-81.015626 0l-22.941406-22.941406c-7.195312-17.140625-4.824218-28.851563 2.628906-37.144532l40.199219 40.199219c18.941407 18.941407 47.84375 21.84375 69.835938 8.707031zm0 0" fill="#beccd3"/><path d="m69.742188 273.976562c.394531.414063.800781.816407 1.207031 1.222657l76.289062 76.289062c-7.457031 8.292969-9.828125 20.003907-2.628906 37.140625l-77.503906-77.503906c-7.199219-17.136719-4.824219-28.847656 2.636719-37.148438zm0 0" fill="#beccd3"/><path d="m61.410156 41.023438c-28.28125 33.261718-41.9375 74.773437-40.972656 116.023437-7.351562 2.742187-14.140625 8.679687-19.886719 19.285156-.925781-45.429687 15.910157-91.167969 50.511719-125.769531 3.328125-3.328125 6.746094-6.480469 10.265625-9.484375.03125-.015625.058594-.03125.082031-.054687zm0 0" fill="#beccd3"/><path d="m295.585938 50.5625 8.101562 8.101562c22.367188 22.367188 22.375 58.640626 0 81.015626s-58.648438 22.371093-81.019531 0c-36.96875-36.972657 21.898437-112.839844-17.800781-136.792969 33.253906 6.121093 65.058593 22.015625 90.71875 47.675781zm0 0" fill="#dae6ed"/><path d="m312.390625 128.5c-.015625.027344-.027344.058594-.042969.085938-2.363281 3.957031-5.253906 7.683593-8.664062 11.09375-22.375 22.375-58.648438 22.367187-81.015625 0-11.386719-11.386719-13.683594-26.457032-12.570313-42.5625 8.917969 2.671874 17.320313 7.542968 24.355469 14.574218l8.101563 8.101563c18.941406 18.945312 47.835937 21.835937 69.835937 8.707031zm0 0" fill="#beccd3"/><path d="m.550781 176.328125-.007812.007813" fill="#dae6ed"/></g><g transform="matrix(0.06642111390829086 0 0 0.06642111390829086 273.94546680928033 133.9961338043213)" id="L1_2"><path d="m493.167969 199.277344v116.058594c0 11.890624-9.640625 21.535156-21.53125 21.535156l-73.246094 30.96875-119.402344-30.96875c-11.890625 0-21.53125-9.644532-21.53125-21.535156l-88.496093-60.515626 88.496093-55.542968c0-11.890625 9.640625-21.535156 21.53125-21.535156h192.648438c11.890625 0 21.53125 9.644531 21.53125 21.535156zm0 0" fill="#4588b5"/><path d="m493.167969 199.277344v62.726562c0 11.890625-9.640625 21.53125-21.53125 21.53125h-192.648438c-11.890625 0-21.53125-9.640625-21.53125-21.53125v-62.726562c0-11.890625 9.640625-21.535156 21.53125-21.535156h192.648438c11.890625 0 21.53125 9.644531 21.53125 21.535156zm0 0" fill="#6b9dc6"/><path d="m507.242188 358.402344v78.308594c0 .472656-.011719.941406-.054688 1.414062-.71875 11.230469-10.058594 20.109375-21.480469 20.109375h-464.171875c-11.890625 0-21.535156-9.632813-21.535156-21.523437v-78.308594c0-9.308594 5.910156-17.234375 14.171875-20.234375 2.289063-.839844 4.777344-1.296875 7.363281-1.296875h464.171875c11.890625 0 21.535157 9.640625 21.535157 21.53125zm0 0" fill="#f79e31"/><path d="m507.242188 358.402344v78.308594c0 .472656-.011719.941406-.054688 1.414062-2.300781.835938-4.777344 1.296875-7.359375 1.296875h-464.175781c-11.890625 0-21.535156-9.644531-21.535156-21.535156v-78.308594c0-.46875.011718-.941406.054687-1.410156 2.289063-.839844 4.777344-1.296875 7.363281-1.296875h464.171875c11.890625 0 21.535157 9.640625 21.535157 21.53125zm0 0" fill="#ffe66b"/><path d="m222.140625 336.871094h13.792969c11.890625 0 21.523437-9.644532 21.523437-21.535156v-203.195313c0-11.890625-9.632812-21.53125-21.523437-21.53125h-190.886719c-11.890625 0-21.535156 9.640625-21.535156 21.53125v203.195313c0 11.890624 9.644531 21.535156 21.535156 21.535156h13.792969" fill="#ef5361"/><path d="m257.4375 111.523438h-181.019531c-11.890625 0-21.53125 9.640624-21.53125 21.53125v203.199218c0 .207032 0 .40625.019531.617188h-9.859375c-11.890625 0-21.535156-9.644532-21.535156-21.535156v-203.195313c0-11.890625 9.644531-21.53125 21.535156-21.53125l94.109375-38.140625 96.777344 38.140625c11.683594 0 21.1875 9.304687 21.503906 20.914063zm0 0" fill="#dc4250"/><path d="m291.738281 21.53125v47.542969c0 11.890625-9.644531 21.535156-21.535156 21.535156h-248.667969c-11.898437 0-21.53124975-9.644531-21.53124975-21.535156v-47.542969c0-11.890625 9.63281275-21.53125 21.53124975-21.53125h248.667969c11.890625 0 21.535156 9.640625 21.535156 21.53125zm0 0" fill="#f79e31"/><path d="m291.738281 21.53125v47.542969c0 11.890625-9.644531 21.535156-21.535156 21.535156h-202.652344c-11.902343 0-21.53125-9.644531-21.53125-21.535156v-47.542969c0-11.890625 9.628907-21.53125 21.53125-21.53125h202.652344c11.890625 0 21.535156 9.640625 21.535156 21.53125zm0 0" fill="#ffe66b"/><path d="m247.085938 405.402344c0 58.871094-47.722657 106.597656-106.597657 106.597656s-106.601562-47.726562-106.601562-106.597656c0-58.875 47.726562-106.601563 106.601562-106.601563s106.597657 47.726563 106.597657 106.601563zm0 0" fill="#666666"/><path d="m470.46875 439.917969c0 39.8125-32.269531 72.082031-72.078125 72.082031s-72.082031-32.269531-72.082031-72.082031c0-39.808594 32.273437-72.078125 72.082031-72.078125s72.078125 32.269531 72.078125 72.078125zm0 0" fill="#666666"/><path d="m428.605469 439.917969c0 16.6875-13.527344 30.21875-30.214844 30.21875s-30.214844-13.53125-30.214844-30.21875c0-16.683594 13.527344-30.214844 30.214844-30.214844s30.214844 13.53125 30.214844 30.214844zm0 0" fill="#4d4d4d"/><path d="m186.003906 405.402344c0 25.136718-20.378906 45.515625-45.515625 45.515625s-45.515625-20.378907-45.515625-45.515625c0-25.140625 20.378906-45.515625 45.515625-45.515625s45.515625 20.375 45.515625 45.515625zm0 0" fill="#4d4d4d"/><path d="m456.230469 50.34375v104.371094c0 12.714844-10.3125 23.027344-23.027344 23.027344h-52.457031c-12.71875 0-23.019532-10.3125-23.019532-23.027344v-104.371094c0-12.714844 10.300782-23.015625 23.019532-23.015625h52.457031c12.714844 0 23.027344 10.300781 23.027344 23.015625zm0 0" fill="#3dad52"/><path d="m456.230469 50.34375v104.371094c0 12.714844-10.3125 23.027344-23.027344 23.027344h-13.242187c-12.714844 0-23.015626-10.3125-23.015626-23.027344v-104.371094c0-12.714844 10.300782-23.015625 23.015626-23.015625h13.242187c12.714844 0 23.027344 10.300781 23.027344 23.015625zm0 0" fill="#4dc168"/><path d="m198.644531 132.25h-116.320312c-9.296875 0-16.832031 7.535156-16.832031 16.832031v54.179688c0 9.296875 7.535156 16.832031 16.832031 16.832031h116.324219c9.292968 0 16.832031-7.535156 16.832031-16.832031v-54.179688c-.003907-9.296875-7.539063-16.832031-16.835938-16.832031zm0 0" fill="#dae6ed"/></g><g transform="matrix(0.08774153854077082 -0.01981260549659892 0.01981260549659892 0.08774153854077082 -8.901935391807022 189.3625355719845)" id="L1_3"><path d="m424.402344 289.296875v55.152344c-.960938 6.726562-2.253906 13.34375-3.867188 19.816406-.667968 2.636719-1.378906 5.253906-2.136718 7.851563-4.371094 14.824218-10.457032 28.925781-18.015626 42.050781-11.558593 20.066406-26.582031 37.871093-44.261718 52.613281-18.511719 15.425781-39.914063 27.507812-63.296875 35.273438-17 5.671874-35.054688 9.046874-53.808594 9.789062-2.59375.105469-5.203125.15625-7.816406.15625-2.617188 0-5.222657-.050781-7.820313-.15625-44.480468-1.75-85.113281-18.386719-117.097656-45.0625-17.6875-14.742188-32.699219-32.546875-44.25-52.613281h-.019531c-12.132813-21.066407-20.472657-44.625-24.019531-69.71875v-55.152344c13.398437-94.726563 94.800781-167.574219 193.207031-167.574219 21.617187 0 42.425781 3.523438 61.867187 10 69.039063 23.078125 120.890625 83.675782 131.335938 157.574219zm0 0" fill="#ffe66b"/><path d="m130.003906 309.113281v-19.816406c11.242188-79.480469 70.34375-143.546875 147.199219-162.121094-14.75-3.566406-30.160156-5.453125-46.003906-5.453125-98.398438 0-179.804688 72.84375-193.203125 167.574219v55.148437c3.539062 25.09375 11.882812 48.660157 24.015625 69.71875h.011719c11.558593 20.074219 26.574218 37.871094 44.257812 52.613282 33.851562 28.234375 77.394531 45.222656 124.917969 45.222656 15.84375 0 31.238281-1.886719 45.976562-5.464844-29.46875-7.125-56.328125-20.941406-78.882812-39.757812-17.683594-14.738282-32.699219-32.539063-44.257813-52.613282h-.019531c-3.761719-6.527343-7.15625-13.292968-10.152344-20.273437-6.023437-14.015625 4.164063-29.628906 19.417969-29.628906h257.25c1.625-6.472657 2.917969-13.085938 3.871094-19.816407v-35.332031zm0 0" fill="#f79e31"/><g fill="#333333"><path d="m117.691406 443.835938c0 8.9375-4.351562 17.042968-11.410156 22.941406-17.683594-14.742188-32.699219-32.539063-44.261719-52.613282 4.984375-1.859374 10.488281-2.894531 16.289063-2.894531 21.753906 0 39.382812 14.570313 39.382812 32.566407zm0 0"/><path d="m270.570312 443.84375c0 17.988281-17.628906 32.585938-39.382812 32.585938-21.730469 0-39.359375-14.597657-39.359375-32.585938 0-18.003906 17.628906-32.574219 39.359375-32.574219 21.753906 0 39.382812 14.570313 39.382812 32.574219zm0 0"/><path d="m400.375 414.164062c-11.550781 20.074219-26.582031 37.871094-44.25 52.613282-7.058594-5.898438-11.417969-14.003906-11.417969-22.941406 0-17.996094 17.628907-32.566407 39.359375-32.566407 5.824219 0 11.335938 1.035157 16.308594 2.894531zm0 0"/></g><path d="m231.1875 134.753906c-37.152344 0-67.375-30.226562-67.375-67.375 0-37.152344 30.222656-67.378906 67.375-67.378906 37.167969 0 67.40625 30.226562 67.40625 67.375 0 37.152344-30.238281 67.378906-67.40625 67.378906zm0-119.117187c-28.53125 0-51.742188 23.210937-51.742188 51.738281 0 28.53125 23.210938 51.742188 51.742188 51.742188 28.546875 0 51.769531-23.210938 51.769531-51.742188 0-28.527344-23.222656-51.738281-51.769531-51.738281zm0 0" fill="#f79e31"/><path d="m239.015625 454.832031v57.011719c-2.59375.105469-5.203125.15625-7.816406.15625-2.617188 0-5.222657-.050781-7.820313-.15625v-57.011719c0-4.324219 3.503906-7.816406 7.820313-7.816406 4.3125 0 7.816406 3.492187 7.816406 7.816406zm0 0" fill="#333333"/><path d="m462.410156 316.871094c0 4.417968-1.046875 8.578125-2.894531 12.285156-1.332031 2.679688-3.105469 5.125-5.191406 7.210938-5 4.984374-11.878907 8.078124-19.503907 8.078124h-407.253906c-15.214844 0-27.566406-12.34375-27.566406-27.574218 0-7.605469 3.085938-14.503906 8.070312-19.496094 4.992188-4.984375 11.890626-8.078125 19.496094-8.078125h407.253906c15.230469 0 27.589844 12.339844 27.589844 27.574219zm0 0" fill="#f79e31"/><path d="m462.410156 316.871094c0 4.417968-1.046875 8.578125-2.894531 12.285156-1.332031 2.679688-3.105469 5.125-5.191406 7.210938-5 4.984374-11.878907 8.078124-19.503907 8.078124h-326.570312c-15.210938 0-27.574219-12.34375-27.574219-27.574218 0-7.605469 3.09375-14.503906 8.078125-19.496094 4.992188-4.984375 11.890625-8.078125 19.496094-8.078125h326.566406c15.234375 0 27.59375 12.339844 27.59375 27.574219zm0 0" fill="#ffe66b"/></g><g transform="matrix(0.09879425782285967 -0.02540423842195668 0.02540423842195668 0.09879425782285967 96.96801744508593 100.88459645765215)" id="L1_4"><path d="m154.253906 104.976562c-1.929687-1.925781-4.738281-2.699218-7.378906-2.042968-.347656.085937-21.417969 5.160156-46.480469 2.910156-13.667969-15.320312-10.359375-31.773438-10.183593-32.601562.945312-4.160157-1.644532-8.3125-5.804688-9.285157-4.167969-.976562-8.355469 1.617188-9.332031 5.796875-.191407.816406-3.476563 15.648438 4.375 32.394532-10.121094-2.78125-20.160157-7.175782-29.132813-13.917969-2.539062-1.910157-4.9375-3.972657-7.203125-6.179688 1.042969-28.355469 15.914063-46.925781 16.214844-47.296875 2.730469-3.296875 2.28125-8.183594-1.011719-10.925781-3.296875-2.746094-8.195312-2.300781-10.941406.996094-.640625.773437-12.726562 15.5625-17.722656 39.617187-8.507813-15.070312-13.246094-34.113281-14.121094-56.96875-.164062-4.289062-3.742188-7.621094-8.058594-7.46874975-4.289062.16406275-7.632812 3.77343775-7.4648435 8.06249975 1.6171875 42.261719 15.4257815 73.433594 41.0507815 92.644532 38.09375 28.558593 89.839844 21.257812 105.203125 18.25l21.339843 21.339843c1.519532 1.519531 3.507813 2.277344 5.496094 2.277344 1.988282 0 3.976563-.757813 5.492188-2.277344 3.035156-3.03125 3.035156-7.953125 0-10.984375zm0 0" fill="#ffe66b"/><path d="m457.179688.00390625c-4.304688-.14453125-7.894532 3.17968775-8.058594 7.46874975-.875 22.855469-5.613282 41.898438-14.121094 56.972656-4.996094-24.058593-17.082031-38.847656-17.722656-39.617187-2.738282-3.289063-7.613282-3.734375-10.910156-1.007813-3.300782 2.726563-3.761719 7.621094-1.046876 10.929688.160157.191406 15.171876 18.804688 16.21875 47.300781-2.265624 2.207031-4.664062 4.269531-7.203124 6.179688-8.972657 6.742187-19.011719 11.136719-29.136719 13.917969 7.855469-16.746094 4.570312-31.578126 4.378906-32.398438-.976563-4.175781-5.167969-6.800781-9.339844-5.820312-4.179687.976562-6.78125 5.125-5.804687 9.304687.160156.722656 3.535156 17.238281-10.179688 32.605469-25.058594 2.253906-46.125-2.820313-46.472656-2.90625-2.648438-.667969-5.453125.109375-7.382812 2.042968l-24.339844 24.335938c-3.03125 3.035156-3.03125 7.953125 0 10.988281 1.519531 1.515625 3.507812 2.273438 5.496094 2.273438 1.988281 0 3.976562-.757813 5.492187-2.273438l21.34375-21.34375c15.363281 3.011719 67.109375 10.3125 105.199219-18.246093 25.625-19.214844 39.4375-50.382813 41.054687-92.648438.167969-4.285156-3.175781-7.894531-7.464843-8.05859375zm0 0" fill="#ffe66b"/><path d="m137.679688 169.570312h92.785156v48.425782h-110.023438c-2.859375.207031-5.882812.320312-9.09375.320312-60.078125 0-55.933594-78.722656-55.933594-78.722656zm0 0" fill="#7f4a26"/><path d="m353.300781 218.316406c-3.210937 0-6.234375-.113281-9.09375-.320312h-87.121093v-48.425782h69.886718l82.261719-29.976562s4.144531 78.722656-55.933594 78.722656zm0 0" fill="#935d35"/><path d="m309.941406 357.15625c3.824219 3.011719 7.46875 6.253906 10.910156 9.695312 22.652344 22.652344 36.667969 53.945313 36.667969 88.519532v27.613281c-78.980469 38.6875-171.40625 38.6875-250.386719 0v-27.613281c0-39.828125 18.59375-75.304688 47.574219-98.214844" fill="#935d35"/><path d="m183.648438 357.15625c-18.167969 22.910156-29.832032 58.386719-29.832032 98.214844v45.585937c-15.929687-4.570312-31.550781-10.554687-46.683594-17.972656v-27.613281c0-39.828125 18.59375-75.304688 47.574219-98.214844zm0 0" fill="#7f4a26"/><path d="m232.324219 117.980469c-62.179688 0-112.585938 50.40625-112.585938 112.585937v45.035156c0 62.179688 50.40625 112.585938 112.585938 112.585938 62.179687 0 112.589843-50.40625 112.589843-112.585938v-45.035156c-.003906-62.179687-50.410156-112.585937-112.589843-112.585937zm0 0" fill="#f6ba97"/><path d="m253.046875 386.269531c-6.710937 1.261719-13.640625 1.914063-20.714844 1.914063-62.191406 0-112.59375-50.410156-112.59375-112.589844v-45.027344c0-62.179687 50.402344-112.59375 112.59375-112.59375 7.074219 0 14.003907.652344 20.714844 1.917969-52.296875 9.714844-91.875 55.570313-91.875 110.675781v45.027344c0 55.105469 39.578125 100.960938 91.875 110.675781zm0 0" fill="#eaa27f"/><g fill="#af7e5d"><path d="m159.191406 405.476562c0 14.820313-12.023437 26.835938-26.847656 26.835938-8.398438 0-15.910156-3.863281-20.820312-9.910156 4.382812-16.109375 11.902343-30.921875 21.867187-43.742188h.007813c14.335937.558594 25.792968 12.34375 25.792968 26.816406zm0 0"/><path d="m308.742188 501.546875c-49.976563 13.929687-102.855469 13.929687-152.832032 0 5.054688-37.691406 37.339844-66.746094 76.421875-66.746094 39.070313 0 71.355469 29.054688 76.410157 66.746094zm0 0"/><path d="m353.125 422.402344c-4.910156 6.046875-12.417969 9.910156-20.820312 9.910156-14.820313 0-26.847657-12.015625-26.847657-26.835938 0-14.472656 11.457031-26.257812 25.792969-26.816406h.011719c9.960937 12.820313 17.484375 27.632813 21.863281 43.742188zm0 0"/></g><path d="m344.910156 230.574219v26.214843c0-31.085937-25.199218-56.285156-56.292968-56.285156-31.085938 0-56.285157 25.199219-56.285157 56.285156 0-31.085937-25.214843-56.285156-56.296875-56.285156-31.097656 0-56.296875 25.199219-56.296875 56.285156v-26.214843c0-62.179688 50.402344-112.59375 112.59375-112.59375 62.175781 0 112.578125 50.414062 112.578125 112.59375zm0 0" fill="#935d35"/><path d="m119.738281 230.566406v26.214844c0-27.289062 19.425781-50.039062 45.210938-55.1875 11.046875-41.609375 45.308593-73.757812 88.097656-81.707031 0-.003907-.003906-.003907-.007813-.003907-6.710937-1.25-13.632812-1.910156-20.707031-1.910156-62.191406 0-112.59375 50.414063-112.59375 112.59375zm0 0" fill="#7f4a26"/><path d="m203.929688 121.59375c1.738281 4.046875 2.703124 8.523438 2.703124 13.214844 0 18.519531-15.011718 33.539062-33.539062 33.539062-10.246094 0-19.414062-4.585937-25.566406-11.828125 14.636718-16.769531 34.183594-29.15625 56.402344-34.925781zm0 0" fill="#af7e5d"/><path d="m317.132812 156.519531c-6.164062 7.242188-15.332031 11.828125-25.574218 11.828125-18.53125 0-33.539063-15.019531-33.539063-33.539062 0-4.691406.960938-9.167969 2.703125-13.214844 22.207032 5.769531 41.761719 18.15625 56.410156 34.925781zm0 0" fill="#af7e5d"/><path d="m175.167969 288.234375c-4.289063 0-7.765625-3.476563-7.765625-7.769531v-21.75c0-4.289063 3.476562-7.769532 7.765625-7.769532 4.292969 0 7.769531 3.480469 7.769531 7.769532v21.75c0 4.292968-3.476562 7.769531-7.769531 7.769531zm0 0" fill="#333333"/><path d="m289.480469 288.234375c-4.289063 0-7.765625-3.476563-7.765625-7.769531v-21.75c0-4.289063 3.476562-7.769532 7.765625-7.769532 4.292969 0 7.769531 3.480469 7.769531 7.769532v21.75c0 4.292968-3.476562 7.769531-7.769531 7.769531zm0 0" fill="#333333"/><path d="m267.148438 352.011719c-7.675782 0-15.429688-2.179688-22.425782-6.492188-4.972656-3.0625-9.152344-6.929687-12.398437-11.332031-3.242188 4.402344-7.425781 8.269531-12.394531 11.332031-12.601563 7.769531-27.664063 8.617188-40.292969 2.269531-3.832031-1.925781-5.378907-6.597656-3.453125-10.429687 1.929687-3.835937 6.601562-5.378906 10.429687-3.453125 7.78125 3.910156 17.183594 3.308594 25.164063-1.613281 8.003906-4.933594 12.78125-12.929688 12.78125-21.390625 0-4.289063 3.476562-7.769532 7.765625-7.769532 4.292969 0 7.769531 3.480469 7.769531 7.769532 0 8.460937 4.777344 16.457031 12.78125 21.390625 7.976562 4.921875 17.386719 5.523437 25.164062 1.613281 3.828126-1.925781 8.5-.382812 10.429688 3.453125 1.925781 3.832031.378906 8.5-3.453125 10.429687-5.617187 2.824219-11.71875 4.222657-17.867187 4.222657zm0 0" fill="#eaa27f"/><path d="m232.324219 282.917969c-4.289063 0-7.765625-3.480469-7.765625-7.769531v-57.15625c0-4.289063 3.476562-7.765626 7.765625-7.765626 4.292969 0 7.769531 3.476563 7.769531 7.765626v57.15625c0 4.289062-3.476562 7.769531-7.769531 7.769531zm0 0" fill="#935d35"/><path d="m243.183594 310.902344h-21.714844c-9.875 0-17.878906-8.003906-17.878906-17.875 0-9.875 8.003906-17.878906 17.878906-17.878906h21.714844c9.871094 0 17.875 8.003906 17.875 17.878906 0 9.871094-8.003906 17.875-17.875 17.875zm0 0" fill="#333333"/></g><g transform="matrix(0.09950329244884774 -0.022111842640525365 0.022111842640525365 0.09950329244884774 267.84279677339464 313.1581192477139)" id="L1_5"><path d="m179.21875 175.675781s-11.644531 26.363281 0 51.277344c0 0 30.074219.382813 40.746094-10.289063h70.398437c10.667969 10.671876 40.742188 10.289063 40.742188 10.289063 11.644531-24.914063 0-51.277344 0-51.277344l-77.953125-109.109375zm0 0" fill="#4dc168"/><path d="m497.128906 175.742188c-7.851562-24.191407-45.265625-33.511719-59.914062-53.644532-14.792969-20.324218-12.210938-58.738281-32.535156-73.53125-20.121094-14.648437-55.78125-.414062-79.972657-8.265625-23.328125-7.578125-43.695312-40.300781-69.546875-40.300781-25.859375 0-46.21875 32.722656-69.558594 40.300781-24.179687 7.851563-59.839843-6.382812-79.960937 8.265625-20.324219 14.792969-17.742187 53.207032-32.535156 73.53125-14.648438 20.132813-52.0625 29.453125-59.914063 53.632813-7.578125 23.339843 16.964844 52.769531 16.964844 78.621093 0 25.863282-24.542969 55.285157-16.964844 78.621094 7.851563 24.179688 45.265625 33.503906 59.914063 53.632813 14.792969 20.328125 12.210937 58.738281 32.535156 73.535156 20.121094 14.648437 55.78125.414063 79.960937 8.261719 23.339844 7.578125 43.699219 40.300781 69.558594 40.300781 25.851563 0 46.21875-32.722656 69.546875-40.300781 24.191407-7.847656 59.851563 6.386718 79.972657-8.261719 20.324218-14.796875 17.742187-53.207031 32.535156-73.535156 14.648437-20.128907 52.0625-29.453125 59.914062-53.632813 7.566406-23.335937-16.964844-52.757812-16.964844-78.621094 0-25.851562 24.53125-55.28125 16.964844-78.609374zm-129.816406 143.382812c-10.007812 17.285156-45.699219 10.421875-62.984375 20.417969-16.757813 9.699219-28.414063 44.300781-49.167969 44.300781s-32.410156-34.601562-49.167968-44.300781c-17.285157-9.996094-52.988282-3.132813-62.984376-20.417969-9.699218-16.765625 13.804688-44.019531 13.804688-64.773438 0-20.753906-23.503906-48.003906-13.804688-64.761718 9.996094-17.292969 45.699219-10.433594 62.984376-20.429688 16.757812-9.695312 28.414062-44.300781 49.167968-44.300781s32.410156 34.605469 49.167969 44.300781c17.285156 9.996094 52.976563 3.136719 62.984375 20.429688 9.699219 16.757812-13.804688 44.007812-13.804688 64.761718 0 20.753907 23.503907 48.007813 13.804688 64.773438zm0 0" fill="#9fd661"/><path d="m217.789062 40.300781c18.289063-5.9375 34.75-27.316406 53.460938-36.289062-5.160156-2.476563-10.496094-4.011719-16.085938-4.011719-25.863281 0-46.222656 32.722656-69.558593 40.300781-2.328125.753907-4.761719 1.304688-7.273438 1.695313 13.8125.773437 27.9375 2.046875 39.457031-1.695313zm0 0" fill="#8bc34c"/><path d="m399.5 319.125c9.699219-16.765625-13.804688-44.019531-13.804688-64.773438 0-20.753906 23.503907-48.003906 13.804688-64.761718-10.007812-17.292969-45.699219-10.433594-62.984375-20.429688-16.757813-9.695312-28.414063-44.300781-49.167969-44.300781-6.011718 0-11.261718 2.917969-16.09375 7.28125 11.84375 10.691406 21.175782 30.132813 33.074219 37.019531 17.289063 9.996094 52.980469 3.136719 62.988281 20.429688 9.695313 16.757812-13.808594 44.007812-13.808594 64.761718 0 20.753907 23.503907 48.007813 13.808594 64.773438-10.007812 17.285156-45.699218 10.421875-62.988281 20.417969-11.898437 6.890625-21.230469 26.328125-33.074219 37.023437 4.832032 4.363282 10.078125 7.277344 16.09375 7.277344 20.753906 0 32.410156-34.601562 49.167969-44.300781 17.285156-9.996094 52.976563-3.132813 62.984375-20.417969zm0 0" fill="#8bc34c"/><path d="m217.789062 468.402344c-11.519531-3.738282-25.648437-2.46875-39.457031-1.691406 2.511719.390624 4.945313.9375 7.273438 1.691406 23.335937 7.578125 43.695312 40.300781 69.554687 40.300781 5.59375 0 10.925782-1.535156 16.089844-4.011719-18.710938-8.972656-35.171875-30.347656-53.460938-36.289062zm0 0" fill="#8bc34c"/><path d="m137.828125 460.140625c-20.328125-14.796875-17.742187-53.207031-32.535156-73.535156-14.648438-20.128907-52.066407-29.453125-59.914063-53.632813-7.578125-23.335937 16.964844-52.757812 16.964844-78.621094 0-25.851562-24.542969-55.28125-16.964844-78.621093 7.847656-24.179688 45.265625-33.5 59.914063-53.632813 14.792969-20.324218 12.207031-58.738281 32.535156-73.53125 4.621094-3.363281 10.0625-5.191406 15.992187-6.128906-17.75-.988281-35.871093-2.832031-48.175781 6.128906-20.328125 14.792969-17.742187 53.207032-32.535156 73.53125-14.648437 20.132813-52.066406 29.453125-59.914063 53.632813-7.578124 23.339843 16.964844 52.769531 16.964844 78.621093 0 25.863282-24.542968 55.285157-16.964844 78.621094 7.847657 24.179688 45.265626 33.503906 59.914063 53.632813 14.792969 20.328125 12.207031 58.738281 32.535156 73.535156 12.304688 8.957031 30.425781 7.113281 48.175781 6.125-5.929687-.933594-11.371093-2.765625-15.992187-6.125zm0 0" fill="#8bc34c"/><path d="m397.652344 512c15.558594-15.554688 23.335937-35.945312 23.335937-56.332031 14.414063 14.417969 34.332031 23.332031 56.328125 23.332031 0-21.996094-8.914062-41.914062-23.332031-56.328125 20.386719 0 40.777344-7.78125 56.332031-23.335937-31.109375-31.109376-81.550781-31.109376-112.664062 0-31.109375 31.113281-31.109375 81.554687 0 112.664062zm0 0" fill="#4dc168"/><path d="m112.664062 512c-15.558593-15.554688-23.335937-35.945312-23.335937-56.332031-14.414063 14.417969-34.332031 23.332031-56.328125 23.332031 0-21.996094 8.914062-41.914062 23.332031-56.328125-20.386719 0-40.777343-7.78125-56.332031-23.335937 31.109375-31.109376 81.550781-31.109376 112.664062 0 31.109376 31.113281 31.109376 81.554687 0 112.664062zm0 0" fill="#4dc168"/><path d="m302.917969 184.390625c0 26.375-21.378907 47.757813-47.753907 47.757813-26.378906 0-47.757812-21.382813-47.757812-47.757813s21.378906-47.753906 47.757812-47.753906c26.375 0 47.753907 21.378906 47.753907 47.753906zm0 0" fill="#ef5361"/><path d="m238.546875 184.390625c0-20.917969 13.460937-38.6875 32.1875-45.144531-4.882813-1.683594-10.117187-2.609375-15.570313-2.609375-26.378906 0-47.757812 21.378906-47.757812 47.753906 0 26.378906 21.378906 47.757813 47.757812 47.757813 5.453126 0 10.6875-.925782 15.570313-2.609376-18.726563-6.457031-32.1875-24.226562-32.1875-45.148437zm0 0" fill="#dc4250"/><g fill="#4dc168"><path d="m323.390625 434.15625c10.570313-10.570312 14.574219-25.21875 12.019531-38.882812-13.664062-2.554688-28.308594 1.449218-38.882812 12.019531-10.570313 10.570312-14.570313 25.21875-12.015625 38.882812 13.660156 2.554688 28.308593-1.449219 38.878906-12.019531zm0 0"/><path d="m213.785156 407.292969c-10.570312-10.570313-25.214844-14.570313-38.878906-12.019531-2.554688 13.664062 1.445312 28.3125 12.019531 38.882812 10.570313 10.570312 25.214844 14.574219 38.878907 12.019531 2.554687-13.664062-1.445313-28.3125-12.019532-38.882812zm0 0"/><path d="m323.390625 99.511719c10.570313-10.570313 14.574219-25.21875 12.019531-38.878907-13.664062-2.554687-28.308594 1.445313-38.882812 12.015626-10.570313 10.574218-14.570313 25.21875-12.015625 38.882812 13.660156 2.554688 28.308593-1.449219 38.878906-12.019531zm0 0"/><path d="m213.785156 72.648438c-10.570312-10.570313-25.214844-14.570313-38.878906-12.015626-2.554688 13.660157 1.445312 28.308594 12.019531 38.878907 10.570313 10.570312 25.214844 14.574219 38.878907 12.019531 2.554687-13.664062-1.445313-28.308594-12.019532-38.882812zm0 0"/><path d="m412.933594 322.933594c10.570312 10.570312 25.21875 14.574218 38.882812 12.019531 2.554688-13.664063-1.449218-28.308594-12.019531-38.878906-10.570313-10.574219-25.21875-14.574219-38.882813-12.019531-2.550781 13.664062 1.449219 28.308593 12.019532 38.878906zm0 0"/><path d="m439.796875 213.328125c10.570313-10.570313 14.574219-25.214844 12.019531-38.878906-13.664062-2.554688-28.3125 1.449219-38.882812 12.019531-10.570313 10.570312-14.570313 25.21875-12.019532 38.878906 13.664063 2.554688 28.3125-1.445312 38.882813-12.019531zm0 0"/><path d="m97.382812 322.933594c-10.570312 10.570312-25.21875 14.574218-38.882812 12.019531-2.554688-13.664063 1.449219-28.308594 12.019531-38.878906 10.570313-10.574219 25.21875-14.574219 38.882813-12.019531 2.550781 13.664062-1.449219 28.308593-12.019532 38.878906zm0 0"/><path d="m70.519531 213.328125c-10.570312-10.570313-14.574219-25.214844-12.019531-38.878906 13.664062-2.554688 28.3125 1.449219 38.882812 12.019531 10.570313 10.570312 14.570313 25.21875 12.019532 38.878906-13.664063 2.554688-28.3125-1.445312-38.882813-12.019531zm0 0"/></g><path d="m255.789062 136.640625c0 26.375-21.378906 47.753906-47.753906 47.753906-26.378906 0-47.757812-21.378906-47.757812-47.753906s21.378906-47.757813 47.757812-47.757813c26.375 0 47.753906 21.382813 47.753906 47.757813zm0 0" fill="#ef5361"/><path d="m191.417969 136.640625c0-20.921875 13.460937-38.6875 32.1875-45.148437-4.882813-1.683594-10.117188-2.609376-15.570313-2.609376-26.378906 0-47.757812 21.378907-47.757812 47.757813 0 26.375 21.378906 47.753906 47.757812 47.753906 5.453125 0 10.6875-.925781 15.570313-2.609375-18.726563-6.457031-32.1875-24.226562-32.1875-45.144531zm0 0" fill="#dc4250"/><path d="m350.046875 136.640625c0 26.375-21.382813 47.753906-47.757813 47.753906s-47.757812-21.378906-47.757812-47.753906 21.382812-47.757813 47.757812-47.757813 47.757813 21.382813 47.757813 47.757813zm0 0" fill="#ef5361"/><path d="m285.675781 136.640625c0-20.921875 13.460938-38.6875 32.1875-45.148437-4.882812-1.683594-10.117187-2.609376-15.570312-2.609376-26.378907 0-47.757813 21.378907-47.757813 47.757813 0 26.375 21.378906 47.753906 47.757813 47.753906 5.453125 0 10.6875-.925781 15.570312-2.609375-18.726562-6.457031-32.1875-24.226562-32.1875-45.144531zm0 0" fill="#dc4250"/></g><g transform="matrix(0.07421723008155823 0 0 0.07421723008155823 110.34114791707157 284.0003890991211)" id="L1_6"><path d="m452.820312 185.507812c-28.492187-28.496093-74.691406-28.496093-103.1875 0l-33.8125 33.808594v-69.261718c0-82.871094-67.179687-150.054688-150.050781-150.054688-82.875 0-150.054687 67.183594-150.054687 150.054688v244.109374l273.472656 58.164063 163.632812-163.632813c28.496094-28.496093 28.496094-74.695312 0-103.1875zm0 0" fill="#ef5361"/><path d="m462.019531 196.734375c-28.34375-18.875-66.976562-15.816406-91.988281 9.183594l-25.351562 25.359375c-10.652344 10.652344-28.871094 3.109375-28.871094-11.957032l33.816406-33.816406c28.488281-28.488281 74.691406-28.488281 103.191406 0 3.496094 3.496094 6.5625 7.265625 9.203125 11.230469zm0 0" fill="#dc4250"/><path d="m185.921875 1.339844c-33.378906 4.480468-63.289063 19.933594-85.957031 42.613281-27.160156 27.15625-43.953125 64.660156-43.953125 106.097656v252.6875l-40.308594-8.574219v-244.113281c0-41.4375 16.792969-78.941406 43.953125-106.097656 27.160156-27.160156 64.671875-43.953125 106.109375-43.953125 6.839844 0 13.558594.460938 20.15625 1.339844zm0 0" fill="#dc4250"/><path d="m369.820312 426.136719v53.878906c0 17.660156-14.3125 31.984375-31.972656 31.984375h-305.863281c-17.660156 0-31.984375-14.324219-31.984375-31.984375v-53.878906c0-17.660157 14.324219-31.972657 31.984375-31.972657h305.863281c17.660156 0 31.972656 14.3125 31.972656 31.972657zm0 0" fill="#beccd3"/><g fill="#dae6ed"><path d="m369.820312 426.136719v53.878906c0 17.660156-14.3125 31.984375-31.972656 31.984375h-247.753906c-17.664062 0-31.988281-14.324219-31.988281-31.984375v-53.878906c0-17.660157 14.324219-31.972657 31.988281-31.972657h247.753906c17.660156 0 31.972656 14.3125 31.972656 31.972657zm0 0"/><path d="m238.054688 247.90625 26.851562-26.851562c3.066406-3.066407 3.066406-8.039063 0-11.105469-3.066406-3.066407-8.039062-3.066407-11.105469 0l-30.105469 30.109375h-20.65625c-.800781-3.335938-2.125-6.570313-3.957031-9.578125l16.902344-16.902344c3.066406-3.066406 3.066406-8.039063 0-11.105469s-8.039063-3.066406-11.105469 0l-16.890625 16.894532c-2.972656-1.820313-6.199219-3.160157-9.585937-3.972657v-20.640625l30.101562-30.101562c3.066406-3.066406 3.066406-8.039063 0-11.105469s-8.039062-3.066406-11.105468 0l-26.851563 26.851563-26.855469-26.851563c-3.066406-3.066406-8.039062-3.066406-11.105468 0-3.066407 3.066406-3.066407 8.039063 0 11.101563l30.109374 30.109374v20.636719c-3.390624.8125-6.617187 2.148438-9.585937 3.96875l-16.894531-16.890625c-3.0625-3.066406-8.035156-3.066406-11.101563 0-3.066406 3.066406-3.066406 8.039063 0 11.105469l16.898438 16.898437c-1.835938 3.007813-3.160157 6.242188-3.960938 9.578126h-20.652343l-30.109376-30.105469c-3.066406-3.066407-8.039062-3.066407-11.105468 0-3.066406 3.066406-3.066406 8.039062 0 11.101562l26.855468 26.855469-26.855468 26.851562c-3.066406 3.066407-3.066406 8.039063 0 11.105469 1.535156 1.53125 3.542968 2.296875 5.554687 2.296875 2.007813 0 4.019531-.765625 5.550781-2.296875l30.101563-30.101562h20.660156c.800781 3.335937 2.128907 6.566406 3.964844 9.574219l-16.902344 16.902343c-3.066406 3.066407-3.066406 8.039063 0 11.105469 1.53125 1.53125 3.542969 2.300781 5.550781 2.300781 2.007813 0 4.019532-.765625 5.550782-2.300781l16.898437-16.894531c2.964844 1.816406 6.191407 3.152343 9.574219 3.964843l.007812 20.640626-30.109374 30.105468c-3.066407 3.066406-3.066407 8.039063 0 11.105469 3.066406 3.066406 8.039062 3.066406 11.105468 0l26.851563-26.855469 26.855469 26.855469c1.53125 1.53125 3.542968 2.296875 5.550781 2.296875 2.007812 0 4.019531-.765625 5.550781-2.296875 3.066406-3.066406 3.066406-8.039063 0-11.105469l-30.101562-30.101562-.003907-20.644532c3.386719-.808593 6.617188-2.148437 9.585938-3.96875l16.898437 16.898438c1.53125 1.535156 3.542969 2.300781 5.550782 2.300781 2.011718 0 4.019531-.765625 5.554687-2.300781 3.066406-3.066406 3.066406-8.039062 0-11.105469l-16.90625-16.90625c1.832031-3.003906 3.15625-6.234375 3.957031-9.570312h20.664063l30.101562 30.101562c1.53125 1.53125 3.542969 2.300781 5.550781 2.300781 2.011719 0 4.019532-.765624 5.554688-2.300781 3.066406-3.066406 3.066406-8.039062 0-11.105469zm-54.972657 12.539062c0 .003907 0 .003907-.003906.003907-3.347656 3.347656-7.800781 5.191406-12.535156 5.191406-4.71875 0-9.15625-1.835937-12.5-5.160156-.011719-.011719-.023438-.023438-.03125-.035157-.011719-.011718-.023438-.019531-.035157-.03125-6.882812-6.917968-6.875-18.144531.027344-25.046874 3.351563-3.351563 7.804688-5.195313 12.542969-5.195313 4.71875 0 9.15625 1.835937 12.503906 5.160156.011719.015625.019531.027344.035157.042969.011718.011719.023437.019531.035156.03125 6.875 6.917969 6.867187 18.132812-.03125 25.035156 0 0-.003906 0-.007813.003906zm0 0"/></g></g><g transform="matrix(0.11718741059303284 0 0 0.11718741059303284 -11 29)" id="L1_7"><path d="m432.039062 36.28125-48.914062 18.964844-55.757812-18.964844c-14.832032-14.84375 6.507812-36.28125 52.339843-36.28125 5.710938 0 11.042969.332031 15.96875.949219 34.613281 4.289062 49.355469 22.34375 36.363281 35.332031zm0 0" fill="#beccd3"/><path d="m432.039062 36.28125h-72.726562c-12.988281-12.988281 1.742188-31.042969 36.363281-35.332031 34.613281 4.289062 49.355469 22.34375 36.363281 35.332031zm0 0" fill="#dae6ed"/><path d="m327.367188 109.816406v-73.542968h104.675781v178.210937" fill="#ef5361"/><path d="m490.144531 264.816406h-446.175781c-81.4375-6.980468 192.535156-244.597656 222.296875-249.117187.289063-.054688.550781-.074219.789063-.074219 25.25 0 305.316406 242.148438 223.089843 249.191406zm0 0" fill="#dae6ed"/><path d="m266.265625 15.699219v249.117187h-222.296875c-81.4375-6.980468 192.535156-244.597656 222.296875-249.117187zm0 0" fill="#beccd3"/><path d="m436.945312 247.472656v263.691406h-355.324218v-216.621093l-.394532-28.683594 11.832032-12.59375 118.164062-125.789063 48.0625-51.167968 5.457032 5.261718 126.363281 121.738282zm0 0" fill="#935d35"/><path d="m436.945312 249.148438v75.15625l-169.890624-169.890626-185.433594 185.429688v-45.300781l-.394532-28.683594 11.832032-12.59375 171.683594-171.695313 2.3125-2.3125zm0 0" fill="#7f4a26"/><path d="m65.605469 318.335938-37.578125-37.574219 239.03125-239.03125 223.089844 223.089843-37.574219 37.574219-185.515625-185.515625zm0 0" fill="#ef5361"/><path d="m171.355469 266.242188h186.796875v186.796874h-186.796875zm0 0" fill="#ef5361"/><g fill="#dae6ed"><path d="m251.457031 346.34375c2.125-17.695312 2.125-35.394531 0-53.09375-17.699219-2.125-35.394531-2.125-53.09375 0-2.125 17.695312-2.125 35.394531 0 53.09375 17.699219 2.125 35.394531 2.125 53.09375 0zm0 0"/><path d="m251.457031 426.03125c2.125-17.699219 2.125-35.398438 0-53.097656-17.699219-2.125-35.394531-2.125-53.09375 0-2.125 17.699218-2.125 35.398437 0 53.097656 17.699219 2.125 35.394531 2.125 53.09375 0zm0 0"/><path d="m331.144531 346.34375c2.125-17.695312 2.125-35.394531 0-53.09375-17.699219-2.125-35.398437-2.125-53.097656 0-2.121094 17.695312-2.121094 35.394531 0 53.09375 17.699219 2.125 35.398437 2.125 53.097656 0zm0 0"/><path d="m331.144531 426.03125c2.125-17.699219 2.125-35.398438 0-53.097656-17.699219-2.125-35.398437-2.125-53.097656 0-2.121094 17.699218-2.121094 35.398437 0 53.097656 17.699219 2.125 35.398437 2.125 53.097656 0zm0 0"/></g><path d="m149.121094 485.632812c0 18.53125-10.582032 24.34375-27.1875 25.875-8.59375.800782-18.8125.457032-30.007813.136719-5.574219-.15625-11.386719-.3125-17.363281-.3125-4.3125 0-8.542969.082031-12.65625.175781-35.15625.894532-61.90625 3.59375-61.90625-25.875 0-32.914062 33.375-59.601562 74.5625-59.601562 5.976562 0 11.789062.5625 17.351562 1.625 32.8125 6.25 57.207032 29.84375 57.207032 57.976562zm0 0" fill="#beccd3"/><path d="m149.121094 485.632812c0 18.53125-10.582032 24.34375-27.1875 25.875-4.113282-.09375-8.34375-.175781-12.65625-.175781-5.976563 0-11.789063.15625-17.351563.3125-11.207031.320313-21.425781.664063-30.019531-.136719-16.605469-1.53125-27.1875-7.34375-27.1875-25.875 0-28.132812 24.394531-51.726562 57.195312-57.976562 32.8125 6.25 57.207032 29.84375 57.207032 57.976562zm0 0" fill="#dae6ed"/><path d="m505.839844 490.269531c0 14.800781-8.1875 19.75-21.132813 21.195313-6.304687.710937-13.738281.585937-21.917969.355468-5.8125-.167968-12-.375-18.40625-.375-1.175781 0-2.351562.011719-3.519531.019532-32.3125.355468-57.9375 4.992187-57.9375-21.195313 0-27.136719 27.511719-49.125 61.457031-49.125 6.417969 0 12.59375.78125 18.40625 2.238281 24.949219 6.25 43.050782 24.875 43.050782 46.886719zm0 0" fill="#beccd3"/><path d="m505.839844 490.269531c0 14.800781-8.1875 19.75-21.132813 21.195313-1.167969-.007813-2.34375-.019532-3.523437-.019532-6.402344 0-12.582032.207032-18.394532.375-8.175781.230469-15.613281.355469-21.925781-.355468-12.949219-1.445313-21.132812-6.394532-21.132812-21.195313 0-22.011719 18.101562-40.636719 43.058593-46.886719 24.949219 6.25 43.050782 24.875 43.050782 46.886719zm0 0" fill="#dae6ed"/></g></defs><g fi:class="KUsePattern"><pattern id="pattern_L1_0" width="350" height="350" patternUnits="userSpaceOnUse"><use xlink:href="#L1_0" x="-350" y="-350"/><use xlink:href="#L1_0" x="0" y="-350"/><use xlink:href="#L1_0" x="350" y="-350"/><use xlink:href="#L1_0" x="-350" y="0"/><use xlink:href="#L1_0" x="0" y="0"/><use xlink:href="#L1_0" x="350" y="0"/><use xlink:href="#L1_0" x="-350" y="350"/><use xlink:href="#L1_0" x="0" y="350"/><use xlink:href="#L1_0" x="350" y="350"/></pattern><rect x="0" y="0" width="100%" height="100%" fill="url(#pattern_L1_0)"/></g><g fi:class="KUsePattern"><pattern id="pattern_L1_1" width="350" height="350" patternUnits="userSpaceOnUse"><use xlink:href="#L1_1" x="-350" y="-350"/><use xlink:href="#L1_1" x="0" y="-350"/><use xlink:href="#L1_1" x="350" y="-350"/><use xlink:href="#L1_1" x="-350" y="0"/><use xlink:href="#L1_1" x="0" y="0"/><use xlink:href="#L1_1" x="350" y="0"/><use xlink:href="#L1_1" x="-350" y="350"/><use xlink:href="#L1_1" x="0" y="350"/><use xlink:href="#L1_1" x="350" y="350"/></pattern><rect x="0" y="0" width="100%" height="100%" fill="url(#pattern_L1_1)"/></g><g fi:class="KUsePattern"><pattern id="pattern_L1_2" width="350" height="350" patternUnits="userSpaceOnUse"><use xlink:href="#L1_2" x="-350" y="-350"/><use xlink:href="#L1_2" x="0" y="-350"/><use xlink:href="#L1_2" x="350" y="-350"/><use xlink:href="#L1_2" x="-350" y="0"/><use xlink:href="#L1_2" x="0" y="0"/><use xlink:href="#L1_2" x="350" y="0"/><use xlink:href="#L1_2" x="-350" y="350"/><use xlink:href="#L1_2" x="0" y="350"/><use xlink:href="#L1_2" x="350" y="350"/></pattern><rect x="0" y="0" width="100%" height="100%" fill="url(#pattern_L1_2)"/></g><g fi:class="KUsePattern"><pattern id="pattern_L1_3" width="350" height="350" patternUnits="userSpaceOnUse"><use xlink:href="#L1_3" x="-350" y="-350"/><use xlink:href="#L1_3" x="0" y="-350"/><use xlink:href="#L1_3" x="350" y="-350"/><use xlink:href="#L1_3" x="-350" y="0"/><use xlink:href="#L1_3" x="0" y="0"/><use xlink:href="#L1_3" x="350" y="0"/><use xlink:href="#L1_3" x="-350" y="350"/><use xlink:href="#L1_3" x="0" y="350"/><use xlink:href="#L1_3" x="350" y="350"/></pattern><rect x="0" y="0" width="100%" height="100%" fill="url(#pattern_L1_3)"/></g><g fi:class="KUsePattern"><pattern id="pattern_L1_4" width="350" height="350" patternUnits="userSpaceOnUse"><use xlink:href="#L1_4" x="-350" y="-350"/><use xlink:href="#L1_4" x="0" y="-350"/><use xlink:href="#L1_4" x="350" y="-350"/><use xlink:href="#L1_4" x="-350" y="0"/><use xlink:href="#L1_4" x="0" y="0"/><use xlink:href="#L1_4" x="350" y="0"/><use xlink:href="#L1_4" x="-350" y="350"/><use xlink:href="#L1_4" x="0" y="350"/><use xlink:href="#L1_4" x="350" y="350"/></pattern><rect x="0" y="0" width="100%" height="100%" fill="url(#pattern_L1_4)"/></g><g fi:class="KUsePattern"><pattern id="pattern_L1_5" width="350" height="350" patternUnits="userSpaceOnUse"><use xlink:href="#L1_5" x="-350" y="-350"/><use xlink:href="#L1_5" x="0" y="-350"/><use xlink:href="#L1_5" x="350" y="-350"/><use xlink:href="#L1_5" x="-350" y="0"/><use xlink:href="#L1_5" x="0" y="0"/><use xlink:href="#L1_5" x="350" y="0"/><use xlink:href="#L1_5" x="-350" y="350"/><use xlink:href="#L1_5" x="0" y="350"/><use xlink:href="#L1_5" x="350" y="350"/></pattern><rect x="0" y="0" width="100%" height="100%" fill="url(#pattern_L1_5)"/></g><g fi:class="KUsePattern"><pattern id="pattern_L1_6" width="350" height="350" patternUnits="userSpaceOnUse"><use xlink:href="#L1_6" x="-350" y="-350"/><use xlink:href="#L1_6" x="0" y="-350"/><use xlink:href="#L1_6" x="350" y="-350"/><use xlink:href="#L1_6" x="-350" y="0"/><use xlink:href="#L1_6" x="0" y="0"/><use xlink:href="#L1_6" x="350" y="0"/><use xlink:href="#L1_6" x="-350" y="350"/><use xlink:href="#L1_6" x="0" y="350"/><use xlink:href="#L1_6" x="350" y="350"/></pattern><rect x="0" y="0" width="100%" height="100%" fill="url(#pattern_L1_6)"/></g><g fi:class="KUsePattern"><pattern id="pattern_L1_7" width="350" height="350" patternUnits="userSpaceOnUse"><use xlink:href="#L1_7" x="-350" y="-350"/><use xlink:href="#L1_7" x="0" y="-350"/><use xlink:href="#L1_7" x="350" y="-350"/><use xlink:href="#L1_7" x="-350" y="0"/><use xlink:href="#L1_7" x="0" y="0"/><use xlink:href="#L1_7" x="350" y="0"/><use xlink:href="#L1_7" x="-350" y="350"/><use xlink:href="#L1_7" x="0" y="350"/><use xlink:href="#L1_7" x="350" y="350"/></pattern><rect x="0" y="0" width="100%" height="100%" fill="url(#pattern_L1_7)"/></g></svg>