<svg height="511pt" viewBox="-10 1 511 511.99948" width="511pt" xmlns="http://www.w3.org/2000/svg"><path d="m490.53125 161.632812v280.222657c0 18.429687-7.117188 35.203125-18.738281 47.71875-3.570313 3.847656-7.574219 7.296875-11.921875 10.261719-11.242188 7.679687-24.847656 12.164062-39.484375 12.164062h-349.742188c-14.640625 0-28.234375-4.484375-39.476562-12.164062-4.347657-2.957032-8.347657-6.40625-11.921875-10.25-11.640625-12.519532-18.746094-29.289063-18.746094-47.730469v-280.222657l210.664062-150.613281c20.542969-14.691406 48.160157-14.691406 68.703126 0zm0 0" fill="#ef5361"/><path d="m490.53125 161.636719-205.046875 146.605469c-3.289063 2.355468-6.738281 4.375-10.292969 6.078124-18.878906-8.222656-40.480468-8.222656-59.363281.011719h-.007813c-3.554687-1.703125-6.992187-3.734375-10.28125-6.089843l-205.035156-146.605469 210.652344-150.621094c20.550781-14.6875 48.160156-14.6875 68.707031 0zm0 0" fill="#dc4250"/><path d="m436.550781 100.285156v99.945313l-18.964843 13.5625-15.675782 11.210937-9.851562 7.042969-67.449219 48.222656-13.480469 9.644531-25.640625 18.328126c-3.292969 2.351562-6.738281 4.378906-10.292969 6.082031-11.378906-4.964844-23.730468-6.929688-35.890624-5.914063-8.015626.667969-15.957032 2.644532-23.46875 5.925782h-.023438c-3.550781-1.703126-6.988281-3.742188-10.269531-6.09375l-151.050781-108.011719v-99.945313c0-22.445312 18.191406-40.648437 40.636718-40.648437h300.773438c22.445312 0 40.648437 18.203125 40.648437 40.648437zm0 0" fill="#dae6ed"/><path d="m285.484375 275.332031c-3.289063 2.351563-6.738281 4.375-10.292969 6.074219-11.375-4.957031-23.722656-6.921875-35.886718-5.902344-8.019532.660156-15.957032 2.636719-23.476563 5.914063h-.007813c-3.554687-1.703125-6.992187-3.734375-10.28125-6.085938l-151.054687-108.011719v32.910157l151.054687 108.011719c3.289063 2.355468 6.726563 4.386718 10.28125 6.089843h.011719c7.515625-3.277343 15.453125-5.253906 23.472657-5.917969 12.164062-1.015624 24.511718.949219 35.890624 5.90625 3.550782-1.703124 7-3.722656 10.289063-6.078124l106.574219-76.199219 44.492187-31.8125v-32.910157l-44.492187 31.8125zm0 0" fill="#beccd3"/><path d="m358.542969 256.007812c1.429687-11.328124 1.816406-19.433593 1.816406-19.433593 0-28.570313-16.269531-50.167969-27.113281-61.378907-4.691406-4.859374-5.632813-12.226562-2.207032-18.046874 11.652344-19.800782 8.382813-46.308594 3.449219-64.480469-2.039062-7.542969 2.015625-15.359375 9.351563-18.035157 15.308594-5.589843 39.789062-16.730468 54.660156-34.722656 5.882812-7.105468 16.925781-7.105468 22.808594 0 14.878906 17.992188 39.351562 29.132813 54.671875 34.722656 7.335937 2.675782 11.386719 10.492188 9.339843 18.035157-4.921874 18.171875-8.203124 44.679687 3.449219 64.480469.847657 1.421874 1.421875 2.949218 1.746094 4.503906zm0 0" fill="#4dc168"/><path d="m392.058594 232.042969-106.574219 76.199219c-3.289063 2.355468-6.738281 4.375-10.292969 6.078124-11.375-4.957031-23.722656-6.921874-35.886718-5.90625-2.058594-3.414062-2.84375-7.5625-1.988282-11.671874 5.09375-24.59375-7.617187-50.878907-19.121094-67.953126-4.765624-7.082031-3.3125-16.597656 3.335938-21.945312 13.878906-11.179688 35.28125-31.320312 44.351562-55.167969 3.585938-9.4375 15.023438-13.320312 23.613282-8.03125 21.722656 13.386719 50.976562 16.300781 68.796875 16.699219 8.53125.195312 15.476562 6.851562 16.015625 15.375 1.070312 17.089844 5.367187 39.75 17.75 56.324219zm0 0" fill="#3dad52"/><path d="m471.792969 489.574219c-3.570313 3.847656-7.574219 7.296875-11.921875 10.261719l-167.882813-164.894532c-12.476562-12.214844-28.988281-18.957031-46.46875-18.957031s-33.992187 6.742187-46.488281 18.964844l-167.863281 164.886719c-4.347657-2.957032-8.347657-6.40625-11.921875-10.25l168.8125-165.828126c15.445312-15.117187 35.851562-23.445312 57.460937-23.445312s42.003907 8.328125 57.449219 23.4375zm0 0" fill="#dc4250"/><path d="m324.609375 280.269531-13.480469 9.644531-23.4375-79.472656c-1.230468-4.148437 1.148438-8.507812 5.296875-9.730468 4.148438-1.222657 8.507813 1.148437 9.730469 5.296874zm0 0" fill="#4dc168"/><g fill="#4588b5"><path d="m201.046875 120.121094h-95.945313c-4.328124 0-7.835937-3.507813-7.835937-7.835938s3.507813-7.835937 7.835937-7.835937h95.945313c4.328125 0 7.835937 3.507812 7.835937 7.835937s-3.507812 7.835938-7.835937 7.835938zm0 0"/><path d="m201.046875 157.449219h-95.945313c-4.328124 0-7.835937-3.511719-7.835937-7.839844 0-4.324219 3.507813-7.835937 7.835937-7.835937h95.945313c4.328125 0 7.835937 3.511718 7.835937 7.835937 0 4.328125-3.507812 7.839844-7.835937 7.839844zm0 0"/><path d="m161.0625 192.859375h-55.960938c-4.332031 0-7.839843-3.507813-7.839843-7.835937 0-4.328126 3.507812-7.835938 7.839843-7.835938h55.960938c4.332031 0 7.839844 3.507812 7.839844 7.835938 0 4.328124-3.507813 7.835937-7.839844 7.835937zm0 0"/></g><path d="m417.585938 89.09375v124.699219l-15.675782 11.210937v-135.910156c0-4.324219 3.511719-7.835938 7.835938-7.835938 4.328125 0 7.839844 3.511719 7.839844 7.835938zm0 0" fill="#3dad52"/></svg>