<?xml version="1.0" encoding="UTF-8" standalone="no"?>
<svg
   xmlns:dc="http://purl.org/dc/elements/1.1/"
   xmlns:cc="http://creativecommons.org/ns#"
   xmlns:rdf="http://www.w3.org/1999/02/22-rdf-syntax-ns#"
   xmlns:svg="http://www.w3.org/2000/svg"
   xmlns="http://www.w3.org/2000/svg"
   xmlns:sodipodi="http://sodipodi.sourceforge.net/DTD/sodipodi-0.dtd"
   xmlns:inkscape="http://www.inkscape.org/namespaces/inkscape"
   height="24pt"
   viewBox="-25 0 21.675474 24"
   width="21.675474pt"
   version="1.1"
   id="svg22"
   sodipodi:docname="bell.svg"
   inkscape:version="0.92.3 (2405546, 2018-03-11)">
  <metadata
     id="metadata28">
    <rdf:RDF>
      <cc:Work
         rdf:about="">
        <dc:format>image/svg+xml</dc:format>
        <dc:type
           rdf:resource="http://purl.org/dc/dcmitype/StillImage" />
        <dc:title></dc:title>
      </cc:Work>
    </rdf:RDF>
  </metadata>
  <defs
     id="defs26" />
  <sodipodi:namedview
     pagecolor="#ffffff"
     bordercolor="#666666"
     borderopacity="1"
     objecttolerance="10"
     gridtolerance="10"
     guidetolerance="10"
     inkscape:pageopacity="0"
     inkscape:pageshadow="2"
     inkscape:window-width="1881"
     inkscape:window-height="1056"
     id="namedview24"
     showgrid="false"
     fit-margin-top="0"
     fit-margin-left="0"
     fit-margin-right="0"
     fit-margin-bottom="0"
     inkscape:zoom="1.9555922"
     inkscape:cx="236.08292"
     inkscape:cy="-16.53418"
     inkscape:window-x="39"
     inkscape:window-y="24"
     inkscape:window-maximized="1"
     inkscape:current-layer="svg22" />
  <g
     id="g845"
     transform="translate(-25,-26.786756)">
    <path
       style="fill:#ffe66b;stroke-width:0.04687498"
       inkscape:connector-curvature="0"
       id="path2"
       d="m 19.89386,40.347539 v 2.585278 c -0.04506,0.315308 -0.105658,0.625478 -0.181275,0.928894 -0.03133,0.123598 -0.06466,0.246267 -0.100163,0.368032 -0.204893,0.694894 -0.490174,1.35591 -0.844488,1.971134 -0.541801,0.940611 -1.246023,1.775207 -2.074763,2.466246 -0.867729,0.723081 -1.870972,1.289436 -2.967032,1.653438 -0.796888,0.265876 -1.643196,0.42408 -2.522283,0.458862 -0.121581,0.0047 -0.2439,0.0073 -0.366383,0.0073 -0.122699,0 -0.244829,-0.0029 -0.366593,-0.0073 -2.0850145,-0.08202 -3.9896803,-0.86186 -5.4889455,-2.1123 -0.8291019,-0.691039 -1.5327769,-1.525635 -2.07422,-2.466246 H 2.9068023 C 2.3380721,45.213396 1.9471414,44.109084 1.7808813,42.932817 v -2.585278 c 0.6280551,-4.440304 4.4437878,-7.855029 9.0565917,-7.855029 1.013299,0 1.988699,0.165151 2.90001,0.468751 3.236212,1.081773 5.666755,3.922303 6.156377,7.386278 z m 0,0" />
    <path
       style="fill:#f79e31;stroke-width:0.04687498"
       inkscape:connector-curvature="0"
       id="path4"
       d="m 6.0939326,41.276449 v -0.92891 C 6.6209115,36.621902 9.3912967,33.618782 12.99389,32.748111 12.302493,32.580945 11.580134,32.49251 10.837473,32.49251 c -4.6124356,0 -8.4283549,3.414548 -9.0564065,7.855029 v 2.58509 c 0.165894,1.176273 0.5570074,2.280953 1.1257331,3.268064 h 5.452e-4 c 0.5418093,0.94097 1.2456663,1.775215 2.0745874,2.466249 1.5867906,1.323484 3.6278798,2.119813 5.8555398,2.119813 0.742658,0 1.464283,-0.08845 2.155141,-0.256169 C 11.611264,50.196607 10.352237,49.548968 9.2949817,48.666942 8.466064,47.976084 7.7622056,47.141663 7.2203901,46.200693 h -0.00137 C 7.0428154,45.89472 6.8836909,45.577583 6.7432489,45.250385 6.4609026,44.593395 6.9384427,43.86152 7.6534736,43.86152 H 19.712095 c 0.07617,-0.303409 0.136775,-0.613395 0.181459,-0.928891 v -1.65618 z m 0,0" />
    <g
       style="fill:#333333"
       transform="matrix(0.04687503,0,0,0.04687503,0,26.786756)"
       id="g12">
      <path
         inkscape:connector-curvature="0"
         id="path6"
         d="m 117.69141,443.83594 c 0,8.9375 -4.35157,17.04297 -11.41016,22.9414 -17.683594,-14.74218 -32.699219,-32.53906 -44.261719,-52.61328 4.984375,-1.85937 10.488281,-2.89453 16.289063,-2.89453 21.753906,0 39.382816,14.57031 39.382816,32.56641 z m 0,0" />
      <path
         inkscape:connector-curvature="0"
         id="path8"
         d="m 270.57031,443.84375 c 0,17.98828 -17.6289,32.58594 -39.38281,32.58594 -21.73047,0 -39.35938,-14.59766 -39.35938,-32.58594 0,-18.00391 17.62891,-32.57422 39.35938,-32.57422 21.75391,0 39.38281,14.57031 39.38281,32.57422 z m 0,0" />
      <path
         inkscape:connector-curvature="0"
         id="path10"
         d="m 400.375,414.16406 c -11.55078,20.07422 -26.58203,37.8711 -44.25,52.61328 -7.05859,-5.89843 -11.41797,-14.0039 -11.41797,-22.9414 0,-17.9961 17.62891,-32.56641 39.35938,-32.56641 5.82422,0 11.33593,1.03516 16.30859,2.89453 z m 0,0" />
    </g>
    <path
       style="fill:#f79e31;stroke-width:0.04687498"
       inkscape:connector-curvature="0"
       id="path14"
       d="m 10.836916,33.103352 c -1.7415193,0 -3.1581989,-1.416881 -3.1581989,-3.158206 0,-1.741515 1.4166796,-3.15839 3.1581989,-3.15839 1.742238,0 3.159667,1.416875 3.159667,3.158199 0,1.741516 -1.417429,3.158397 -3.159667,3.158397 z m 0,-5.583621 c -1.3374126,0 -2.4254226,1.088008 -2.4254226,2.425224 0,1.337412 1.08801,2.425416 2.4254226,2.425416 1.338131,0 2.426693,-1.088004 2.426693,-2.425416 0,-1.337216 -1.088562,-2.425224 -2.426693,-2.425224 z m 0,0" />
    <path
       style="fill:#333333;stroke-width:0.04687498"
       inkscape:connector-curvature="0"
       id="path16"
       d="m 11.203856,48.107004 v 2.672419 c -0.121581,0.0047 -0.2439,0.0073 -0.366383,0.0073 -0.122699,0 -0.244829,-0.0029 -0.366593,-0.0073 v -2.672419 c 0,-0.202689 0.164242,-0.3664 0.366593,-0.3664 0.202136,0 0.366383,0.163711 0.366383,0.3664 z m 0,0" />
    <path
       style="fill:#f79e31;stroke-width:0.04687498"
       inkscape:connector-curvature="0"
       id="path18"
       d="m 21.675474,41.640093 c 0,0.207083 -0.04903,0.402089 -0.135687,0.575859 -0.06241,0.125605 -0.145562,0.24024 -0.243344,0.338024 -0.234382,0.233631 -0.556821,0.378653 -0.91424,0.378653 H 1.2921745 C 0.57897961,42.932629 0,42.354015 0,41.640093 0,41.283578 0.14465325,40.960215 0.37829592,40.726211 0.61230441,40.492566 0.93566891,40.347539 1.2921745,40.347539 H 20.382203 c 0.713928,0 1.293271,0.578443 1.293271,1.292554 z m 0,0" />
    <path
       style="fill:#ffe66b;stroke-width:0.04687498"
       inkscape:connector-curvature="0"
       id="path20"
       d="m 21.675474,41.640093 c 0,0.207083 -0.04903,0.402089 -0.135687,0.575859 -0.06241,0.125605 -0.145562,0.24024 -0.243344,0.338024 -0.234382,0.233631 -0.556821,0.378653 -0.91424,0.378653 H 5.0742201 c -0.7130134,0 -1.2925432,-0.578614 -1.2925432,-1.292536 0,-0.356515 0.1450194,-0.679878 0.3786624,-0.913882 0.2340088,-0.233645 0.5573737,-0.378672 0.9138808,-0.378672 H 20.382028 c 0.714103,0 1.293446,0.578443 1.293446,1.292554 z m 0,0" />
  </g>
</svg>
