<svg height="512pt" viewBox="-24 0 512 512.00056" width="512pt" xmlns="http://www.w3.org/2000/svg"><path d="m154.253906 104.976562c-1.929687-1.925781-4.738281-2.699218-7.378906-2.042968-.347656.085937-21.417969 5.160156-46.480469 2.910156-13.667969-15.320312-10.359375-31.773438-10.183593-32.601562.945312-4.160157-1.644532-8.3125-5.804688-9.285157-4.167969-.976562-8.355469 1.617188-9.332031 5.796875-.191407.816406-3.476563 15.648438 4.375 32.394532-10.121094-2.78125-20.160157-7.175782-29.132813-13.917969-2.539062-1.910157-4.9375-3.972657-7.203125-6.179688 1.042969-28.355469 15.914063-46.925781 16.214844-47.296875 2.730469-3.296875 2.28125-8.183594-1.011719-10.925781-3.296875-2.746094-8.195312-2.300781-10.941406.996094-.640625.773437-12.726562 15.5625-17.722656 39.617187-8.507813-15.070312-13.246094-34.113281-14.121094-56.96875-.164062-4.289062-3.742188-7.621094-8.058594-7.46874975-4.289062.16406275-7.632812 3.77343775-7.4648435 8.06249975 1.6171875 42.261719 15.4257815 73.433594 41.0507815 92.644532 38.09375 28.558593 89.839844 21.257812 105.203125 18.25l21.339843 21.339843c1.519532 1.519531 3.507813 2.277344 5.496094 2.277344 1.988282 0 3.976563-.757813 5.492188-2.277344 3.035156-3.03125 3.035156-7.953125 0-10.984375zm0 0" fill="#ffe66b"/><path d="m457.179688.00390625c-4.304688-.14453125-7.894532 3.17968775-8.058594 7.46874975-.875 22.855469-5.613282 41.898438-14.121094 56.972656-4.996094-24.058593-17.082031-38.847656-17.722656-39.617187-2.738282-3.289063-7.613282-3.734375-10.910156-1.007813-3.300782 2.726563-3.761719 7.621094-1.046876 10.929688.160157.191406 15.171876 18.804688 16.21875 47.300781-2.265624 2.207031-4.664062 4.269531-7.203124 6.179688-8.972657 6.742187-19.011719 11.136719-29.136719 13.917969 7.855469-16.746094 4.570312-31.578126 4.378906-32.398438-.976563-4.175781-5.167969-6.800781-9.339844-5.820312-4.179687.976562-6.78125 5.125-5.804687 9.304687.160156.722656 3.535156 17.238281-10.179688 32.605469-25.058594 2.253906-46.125-2.820313-46.472656-2.90625-2.648438-.667969-5.453125.109375-7.382812 2.042968l-24.339844 24.335938c-3.03125 3.035156-3.03125 7.953125 0 10.988281 1.519531 1.515625 3.507812 2.273438 5.496094 2.273438 1.988281 0 3.976562-.757813 5.492187-2.273438l21.34375-21.34375c15.363281 3.011719 67.109375 10.3125 105.199219-18.246093 25.625-19.214844 39.4375-50.382813 41.054687-92.648438.167969-4.285156-3.175781-7.894531-7.464843-8.05859375zm0 0" fill="#ffe66b"/><path d="m137.679688 169.570312h92.785156v48.425782h-110.023438c-2.859375.207031-5.882812.320312-9.09375.320312-60.078125 0-55.933594-78.722656-55.933594-78.722656zm0 0" fill="#7f4a26"/><path d="m353.300781 218.316406c-3.210937 0-6.234375-.113281-9.09375-.320312h-87.121093v-48.425782h69.886718l82.261719-29.976562s4.144531 78.722656-55.933594 78.722656zm0 0" fill="#935d35"/><path d="m309.941406 357.15625c3.824219 3.011719 7.46875 6.253906 10.910156 9.695312 22.652344 22.652344 36.667969 53.945313 36.667969 88.519532v27.613281c-78.980469 38.6875-171.40625 38.6875-250.386719 0v-27.613281c0-39.828125 18.59375-75.304688 47.574219-98.214844" fill="#935d35"/><path d="m183.648438 357.15625c-18.167969 22.910156-29.832032 58.386719-29.832032 98.214844v45.585937c-15.929687-4.570312-31.550781-10.554687-46.683594-17.972656v-27.613281c0-39.828125 18.59375-75.304688 47.574219-98.214844zm0 0" fill="#7f4a26"/><path d="m232.324219 117.980469c-62.179688 0-112.585938 50.40625-112.585938 112.585937v45.035156c0 62.179688 50.40625 112.585938 112.585938 112.585938 62.179687 0 112.589843-50.40625 112.589843-112.585938v-45.035156c-.003906-62.179687-50.410156-112.585937-112.589843-112.585937zm0 0" fill="#f6ba97"/><path d="m253.046875 386.269531c-6.710937 1.261719-13.640625 1.914063-20.714844 1.914063-62.191406 0-112.59375-50.410156-112.59375-112.589844v-45.027344c0-62.179687 50.402344-112.59375 112.59375-112.59375 7.074219 0 14.003907.652344 20.714844 1.917969-52.296875 9.714844-91.875 55.570313-91.875 110.675781v45.027344c0 55.105469 39.578125 100.960938 91.875 110.675781zm0 0" fill="#eaa27f"/><g fill="#af7e5d"><path d="m159.191406 405.476562c0 14.820313-12.023437 26.835938-26.847656 26.835938-8.398438 0-15.910156-3.863281-20.820312-9.910156 4.382812-16.109375 11.902343-30.921875 21.867187-43.742188h.007813c14.335937.558594 25.792968 12.34375 25.792968 26.816406zm0 0"/><path d="m308.742188 501.546875c-49.976563 13.929687-102.855469 13.929687-152.832032 0 5.054688-37.691406 37.339844-66.746094 76.421875-66.746094 39.070313 0 71.355469 29.054688 76.410157 66.746094zm0 0"/><path d="m353.125 422.402344c-4.910156 6.046875-12.417969 9.910156-20.820312 9.910156-14.820313 0-26.847657-12.015625-26.847657-26.835938 0-14.472656 11.457031-26.257812 25.792969-26.816406h.011719c9.960937 12.820313 17.484375 27.632813 21.863281 43.742188zm0 0"/></g><path d="m344.910156 230.574219v26.214843c0-31.085937-25.199218-56.285156-56.292968-56.285156-31.085938 0-56.285157 25.199219-56.285157 56.285156 0-31.085937-25.214843-56.285156-56.296875-56.285156-31.097656 0-56.296875 25.199219-56.296875 56.285156v-26.214843c0-62.179688 50.402344-112.59375 112.59375-112.59375 62.175781 0 112.578125 50.414062 112.578125 112.59375zm0 0" fill="#935d35"/><path d="m119.738281 230.566406v26.214844c0-27.289062 19.425781-50.039062 45.210938-55.1875 11.046875-41.609375 45.308593-73.757812 88.097656-81.707031 0-.003907-.003906-.003907-.007813-.003907-6.710937-1.25-13.632812-1.910156-20.707031-1.910156-62.191406 0-112.59375 50.414063-112.59375 112.59375zm0 0" fill="#7f4a26"/><path d="m203.929688 121.59375c1.738281 4.046875 2.703124 8.523438 2.703124 13.214844 0 18.519531-15.011718 33.539062-33.539062 33.539062-10.246094 0-19.414062-4.585937-25.566406-11.828125 14.636718-16.769531 34.183594-29.15625 56.402344-34.925781zm0 0" fill="#af7e5d"/><path d="m317.132812 156.519531c-6.164062 7.242188-15.332031 11.828125-25.574218 11.828125-18.53125 0-33.539063-15.019531-33.539063-33.539062 0-4.691406.960938-9.167969 2.703125-13.214844 22.207032 5.769531 41.761719 18.15625 56.410156 34.925781zm0 0" fill="#af7e5d"/><path d="m175.167969 288.234375c-4.289063 0-7.765625-3.476563-7.765625-7.769531v-21.75c0-4.289063 3.476562-7.769532 7.765625-7.769532 4.292969 0 7.769531 3.480469 7.769531 7.769532v21.75c0 4.292968-3.476562 7.769531-7.769531 7.769531zm0 0" fill="#333"/><path d="m289.480469 288.234375c-4.289063 0-7.765625-3.476563-7.765625-7.769531v-21.75c0-4.289063 3.476562-7.769532 7.765625-7.769532 4.292969 0 7.769531 3.480469 7.769531 7.769532v21.75c0 4.292968-3.476562 7.769531-7.769531 7.769531zm0 0" fill="#333"/><path d="m267.148438 352.011719c-7.675782 0-15.429688-2.179688-22.425782-6.492188-4.972656-3.0625-9.152344-6.929687-12.398437-11.332031-3.242188 4.402344-7.425781 8.269531-12.394531 11.332031-12.601563 7.769531-27.664063 8.617188-40.292969 2.269531-3.832031-1.925781-5.378907-6.597656-3.453125-10.429687 1.929687-3.835937 6.601562-5.378906 10.429687-3.453125 7.78125 3.910156 17.183594 3.308594 25.164063-1.613281 8.003906-4.933594 12.78125-12.929688 12.78125-21.390625 0-4.289063 3.476562-7.769532 7.765625-7.769532 4.292969 0 7.769531 3.480469 7.769531 7.769532 0 8.460937 4.777344 16.457031 12.78125 21.390625 7.976562 4.921875 17.386719 5.523437 25.164062 1.613281 3.828126-1.925781 8.5-.382812 10.429688 3.453125 1.925781 3.832031.378906 8.5-3.453125 10.429687-5.617187 2.824219-11.71875 4.222657-17.867187 4.222657zm0 0" fill="#eaa27f"/><path d="m232.324219 282.917969c-4.289063 0-7.765625-3.480469-7.765625-7.769531v-57.15625c0-4.289063 3.476562-7.765626 7.765625-7.765626 4.292969 0 7.769531 3.476563 7.769531 7.765626v57.15625c0 4.289062-3.476562 7.769531-7.769531 7.769531zm0 0" fill="#935d35"/><path d="m243.183594 310.902344h-21.714844c-9.875 0-17.878906-8.003906-17.878906-17.875 0-9.875 8.003906-17.878906 17.878906-17.878906h21.714844c9.871094 0 17.875 8.003906 17.875 17.878906 0 9.871094-8.003906 17.875-17.875 17.875zm0 0" fill="#333"/></svg>