<?xml version="1.0" encoding="UTF-8" standalone="no"?>
<svg
   xmlns:dc="http://purl.org/dc/elements/1.1/"
   xmlns:cc="http://creativecommons.org/ns#"
   xmlns:rdf="http://www.w3.org/1999/02/22-rdf-syntax-ns#"
   xmlns:svg="http://www.w3.org/2000/svg"
   xmlns="http://www.w3.org/2000/svg"
   xmlns:sodipodi="http://sodipodi.sourceforge.net/DTD/sodipodi-0.dtd"
   xmlns:inkscape="http://www.inkscape.org/namespaces/inkscape"
   height="32pt"
   viewBox="-45 0 32 32"
   width="32pt"
   id="svg2"
   version="1.1"
   inkscape:version="0.91 r13725"
   sodipodi:docname="047-gift-sm.svg">
  <metadata
     id="metadata40">
    <rdf:RDF>
      <cc:Work
         rdf:about="">
        <dc:format>image/svg+xml</dc:format>
        <dc:type
           rdf:resource="http://purl.org/dc/dcmitype/StillImage" />
        <dc:title></dc:title>
      </cc:Work>
    </rdf:RDF>
  </metadata>
  <defs
     id="defs38" />
  <sodipodi:namedview
     pagecolor="#ffffff"
     bordercolor="#666666"
     borderopacity="1"
     objecttolerance="10"
     gridtolerance="10"
     guidetolerance="10"
     inkscape:pageopacity="0"
     inkscape:pageshadow="2"
     inkscape:window-width="1311"
     inkscape:window-height="722"
     id="namedview36"
     showgrid="false"
     inkscape:zoom="6.6720703"
     inkscape:cx="6.047963"
     inkscape:cy="10.916939"
     inkscape:window-x="50"
     inkscape:window-y="21"
     inkscape:window-maximized="0"
     inkscape:current-layer="svg2" />
  <g
     id="g4168"
     transform="matrix(0.06044905,0,0,0.06044905,-41.69343,29.705921)">
    <path
       style="fill:#dc4250"
       inkscape:connector-curvature="0"
       id="path4"
       d="m 189.32031,-381.39844 54.39063,0 0,47.07031 -54.39063,0 z m 0,0" />
    <path
       style="fill:#ef5361"
       inkscape:connector-curvature="0"
       id="path6"
       d="m 289.34766,-480 c -40.22657,0 -72.83594,32.60938 -72.83594,72.83594 l 0,72.83593 72.83594,0 c 40.22656,0 72.83593,-32.60937 72.83593,-72.83593 0,-40.22656 -32.60937,-72.83594 -72.83593,-72.83594 z m 0,0" />
    <path
       style="fill:#ef5361"
       inkscape:connector-curvature="0"
       id="path8"
       d="m 133.21484,-480 c 40.22657,0 72.83594,32.60938 72.83594,72.83594 l 0,72.83593 -72.83594,0 c -40.222652,0 -72.832028,-32.60937 -72.832028,-72.83593 0,-40.22656 32.609376,-72.83594 72.832028,-72.83594 z m 0,0" />
    <path
       style="fill:#dc4250"
       inkscape:connector-curvature="0"
       id="path10"
       d="m 258.98437,-419.27344 c -23.45703,0 -42.47265,19.01563 -42.47265,42.47266 l 0,42.47265 42.47265,0 c 23.45704,0 42.47266,-19.01562 42.47266,-42.47265 0,-23.45703 -19.01562,-42.47266 -42.47266,-42.47266 z m 0,0" />
    <path
       style="fill:#dc4250"
       inkscape:connector-curvature="0"
       id="path12"
       d="m 163.57812,-419.27344 c 23.45704,0 42.47266,19.01563 42.47266,42.47266 l 0,42.47265 -42.47266,0 c -23.45703,0 -42.47265,-19.01562 -42.47265,-42.47265 0.004,-23.45703 19.01562,-42.47266 42.47265,-42.47266 z m 0,0" />
    <path
       style="fill:#4588b5"
       inkscape:connector-curvature="0"
       id="path14"
       d="m 389.6875,-192.60156 0,193.65234 C 389.6875,18.14062 375.83984,32 358.74609,32 L 63.824219,32 C 46.734375,32 32.875,18.14062 32.875,1.05078 l 0,-193.65234 z m 0,0" />
    <path
       style="fill:#6b9dc6"
       inkscape:connector-curvature="0"
       id="path16"
       d="m 389.6875,-192.60156 0,193.65234 C 389.6875,18.14062 375.83984,32 358.74609,32 L 78.46875,32 C 61.378906,32 47.519531,18.14062 47.519531,1.05078 l 0,-193.65234 z m 0,0" />
    <path
       style="fill:#4588b5"
       inkscape:connector-curvature="0"
       id="path18"
       d="m 32.875,-211.42969 356.8125,0 0,44.97656 -356.8125,0 z m 0,0" />
    <path
       style="fill:#4588b5"
       inkscape:connector-curvature="0"
       id="path20"
       d="m 422.57031,-302.5625 0,77.67187 c 0,17.83594 -14.45312,32.28907 -32.28906,32.28907 l -357.992188,0 C 14.457031,-192.60156 0,-207.05469 0,-224.89063 l 0,-77.67187 c 0,-17.83594 14.457031,-32.28906 32.289062,-32.28906 l 357.992188,0 c 17.83594,0 32.28906,14.45312 32.28906,32.28906 z m 0,0" />
    <path
       style="fill:#6b9dc6"
       inkscape:connector-curvature="0"
       id="path22"
       d="m 422.57031,-302.5625 0,77.67187 c 0,17.83594 -14.45312,32.28907 -32.28906,32.28907 l -342.300781,0 c -17.835938,0 -32.289063,-14.45313 -32.289063,-32.28907 l 0,-77.67187 c 0,-17.83594 14.453125,-32.28906 32.289063,-32.28906 l 342.300781,0 c 17.83594,0 32.28906,14.45312 32.28906,32.28906 z m 0,0" />
    <g
       transform="translate(0,-480)"
       style="fill:#ffffff"
       id="g24">
      <path
         inkscape:connector-curvature="0"
         id="path26"
         d="m 146.72656,373.69141 -17.25781,0 0,-17.25782 c 0,-4.33203 -3.51172,-7.84375 -7.84375,-7.84375 -4.33203,0 -7.84375,3.51172 -7.84375,7.84375 l 0,17.25782 -17.257812,0 c -4.332032,0 -7.847657,3.51171 -7.847657,7.84375 0,4.33203 3.515625,7.84765 7.847657,7.84765 l 17.257812,0 0,17.25781 c 0,4.33204 3.51172,7.84375 7.84375,7.84375 4.33203,0 7.84375,-3.51171 7.84375,-7.84375 l 0,-17.25781 17.25781,0 c 4.33594,0 7.84766,-3.51562 7.84766,-7.84765 0,-4.33204 -3.51172,-7.84375 -7.84766,-7.84375 z m 0,0" />
      <path
         inkscape:connector-curvature="0"
         id="path28"
         d="m 328.72656,220.65625 -17.25781,0 0,-17.25781 c 0,-4.33594 -3.51172,-7.84766 -7.84375,-7.84766 -4.33203,0 -7.84766,3.51172 -7.84766,7.84766 l 0,17.25781 -17.25781,0 c -4.33203,0 -7.84375,3.51172 -7.84375,7.84375 0,4.33203 3.51172,7.84375 7.84375,7.84375 l 17.25781,0 0,17.25781 c 0,4.33594 3.51563,7.84766 7.84766,7.84766 4.33203,0 7.84375,-3.51172 7.84375,-7.84766 l 0,-17.25781 17.25781,0 c 4.33203,0 7.84375,-3.51172 7.84375,-7.84375 0,-4.33203 -3.51172,-7.84375 -7.84375,-7.84375 z m 0,0" />
      <path
         inkscape:connector-curvature="0"
         id="path30"
         d="m 314.08203,428.08203 -17.25781,0 0,-17.25781 c 0,-4.33203 -3.51172,-7.84375 -7.84375,-7.84375 -4.33203,0 -7.84375,3.51172 -7.84375,7.84375 l 0,17.25781 -17.26172,0 c -4.33203,0 -7.84375,3.51172 -7.84375,7.84375 0,4.33203 3.51172,7.84766 7.84375,7.84766 l 17.26172,0 0,17.25781 c 0,4.33203 3.51172,7.84375 7.84375,7.84375 4.33203,0 7.84375,-3.51172 7.84375,-7.84375 l 0,-17.25781 17.25781,0 c 4.33203,0 7.84766,-3.51563 7.84766,-7.84766 0,-4.33203 -3.51563,-7.84375 -7.84766,-7.84375 z m 0,0" />
      <path
         inkscape:connector-curvature="0"
         id="path32"
         d="m 262.30859,345.33203 c 0,-4.33594 -3.51172,-7.84766 -7.84375,-7.84766 l -17.26171,0 0,-17.25781 c 0,-4.33203 -3.51172,-7.84375 -7.84375,-7.84375 -4.33204,0 -7.84375,3.51172 -7.84375,7.84375 l 0,17.25781 -17.25782,0 c -4.33203,0 -7.84765,3.51172 -7.84765,7.84766 0,4.33203 3.51562,7.84375 7.84765,7.84375 l 17.25782,0 0,17.25781 c 0,4.33203 3.51171,7.84375 7.84375,7.84375 4.33203,0 7.84375,-3.51172 7.84375,-7.84375 l 0,-17.25781 17.26171,0 c 4.33203,0 7.84375,-3.51172 7.84375,-7.84375 z m 0,0" />
      <path
         inkscape:connector-curvature="0"
         id="path34"
         d="m 100.18359,224.64062 0,-17.25781 17.25782,0 c 4.33203,0 7.84375,-3.51172 7.84375,-7.84375 0,-4.33203 -3.51172,-7.84375 -7.84375,-7.84375 l -17.25782,0 0,-17.26172 c 0,-4.33203 -3.511715,-7.84375 -7.843746,-7.84375 -4.335938,0 -7.847656,3.51172 -7.847656,7.84375 l 0,17.26172 -17.257813,0 c -4.332031,0 -7.84375,3.51172 -7.84375,7.84375 0,4.33203 3.511719,7.84375 7.84375,7.84375 l 17.257813,0 0,17.25781 c 0,4.33204 3.511718,7.84375 7.847656,7.84375 4.332031,0 7.843746,-3.51171 7.843746,-7.84375 z m 0,0" />
    </g>
  </g>
</svg>
