<svg height="511pt" viewBox="-36 0 511 511.99974" width="511pt" xmlns="http://www.w3.org/2000/svg"><path d="m36.386719 328.382812c-22.691407-29.71875-35.886719-65.265624-35.886719-103.457031 0-104.238281 98.273438-188.730469 219.503906-188.730469 121.226563 0 219.5 84.492188 219.5 188.730469 0 38.191407-13.195312 73.738281-35.886718 103.457031l-194.953126 119.875" fill="#935d35"/><path d="m96.128906 224.921875c0 38.191406 7.449219 73.738281 20.25 103.46875h-79.996094c-22.6875-29.730469-35.882812-65.277344-35.882812-103.46875 0-103.777344 97.414062-187.984375 217.902344-188.71875-67.6875 1.308594-122.273438 85.296875-122.273438 188.71875zm0 0" fill="#7f4a26"/><path d="m168.332031 294.574219c-31 0-55.019531 27.105469-51.296875 57.878906l19.316406 159.546875h83.652344v-165.757812c0-28.535157-23.136718-51.667969-51.671875-51.667969zm0 0" fill="#ffe66b"/><path d="m271.675781 294.574219c-28.539062 0-51.671875 23.132812-51.671875 51.667969v165.757812h83.652344l19.3125-159.546875c3.726562-30.773437-20.296875-57.878906-51.292969-57.878906zm0 0" fill="#f79e31"/><path d="m364.738281 294.574219c-19.839843 0-36.554687 14.8125-38.941406 34.511719l-22.140625 182.914062h63.292969l36.15625-170.042969c5.191406-24.402343-13.417969-47.382812-38.367188-47.382812zm0 0" fill="#ffe66b"/><path d="m75.265625 294.574219c-24.945313 0-43.554687 22.980469-38.367187 47.382812l36.160156 170.042969h63.292968l-22.144531-182.914062c-2.386719-19.699219-19.101562-34.511719-38.941406-34.511719zm0 0" fill="#f79e31"/><path d="m388.011719 163.640625c-43.5 0-52.988281-37.722656-92.796875-18.859375-39.820313 18.859375-25.914063 77.738281-75.210938 77.738281-49.300781 0-35.390625-58.878906-75.214844-77.738281-11.261718-5.339844-20.101562-6.144531-27.96875-4.546875-19.925781 4.011719-33.636718 23.40625-64.828124 23.40625-43.507813 0-50.824219-50.8125-3.6875-91.34375 46.050781-39.582031 107.019531-61.390625 171.699218-61.390625 64.679688 0 125.65625 21.808594 171.695313 61.390625 47.136719 40.53125 39.820312 91.34375-3.6875 91.34375zm0 0" fill="#dae6ed"/><path d="m116.820312 140.234375c-19.925781 4.011719-33.636718 23.40625-64.828124 23.40625-43.507813 0-50.824219-50.8125-3.6875-91.34375 46.050781-39.582031 107.019531-61.390625 171.699218-61.390625-28.359375 0-134.199218 70.449219-103.183594 129.328125zm0 0" fill="#beccd3"/><g fill="#ef5361"><path d="m143.59375 3.171875c-8.722656-5.796875-20.492188-3.425781-26.285156 5.300781l-30.429688 45.796875c-5.796875 8.722657-3.421875 20.492188 5.300782 26.285157 8.722656 5.796874 20.488281 3.421874 26.285156-5.300782l30.429687-45.796875c5.792969-8.722656 3.421875-20.492187-5.300781-26.285156zm0 0"/><path d="m197.433594 40.933594c-9.390625 4.636718-13.242188 16.007812-8.605469 25.394531l24.34375 49.304687c4.636719 9.390626 16.007813 13.242188 25.398437 8.605469 9.386719-4.632812 13.242188-16.003906 8.605469-25.394531l-24.34375-49.304688c-4.636719-9.390624-16.007812-13.242187-25.398437-8.605468zm0 0"/><path d="m370.398438 28.078125c-4.277344-9.558594-15.496094-13.839844-25.054688-9.558594l-50.1875 22.464844c-9.554688 4.28125-13.835938 15.496094-9.558594 25.054687 4.28125 9.558594 15.496094 13.839844 25.054688 9.558594l50.1875-22.46875c9.558594-4.277344 13.835937-15.492187 9.558594-25.050781zm0 0"/></g></svg>