<?xml version="1.0" encoding="UTF-8" standalone="no"?>
<svg
   xmlns:dc="http://purl.org/dc/elements/1.1/"
   xmlns:cc="http://creativecommons.org/ns#"
   xmlns:rdf="http://www.w3.org/1999/02/22-rdf-syntax-ns#"
   xmlns:svg="http://www.w3.org/2000/svg"
   xmlns="http://www.w3.org/2000/svg"
   xmlns:sodipodi="http://sodipodi.sourceforge.net/DTD/sodipodi-0.dtd"
   xmlns:inkscape="http://www.inkscape.org/namespaces/inkscape"
   height="512pt"
   viewBox="-45 0 512 512.00006"
   width="512pt"
   version="1.1"
   id="svg12"
   sodipodi:docname="padre-nuestro.svg"
   inkscape:version="0.92.3 (2405546, 2018-03-11)">
  <metadata
     id="metadata18">
    <rdf:RDF>
      <cc:Work
         rdf:about="">
        <dc:format>image/svg+xml</dc:format>
        <dc:type
           rdf:resource="http://purl.org/dc/dcmitype/StillImage" />
      </cc:Work>
    </rdf:RDF>
  </metadata>
  <defs
     id="defs16" />
  <sodipodi:namedview
     pagecolor="#ffffff"
     bordercolor="#666666"
     borderopacity="1"
     objecttolerance="10"
     gridtolerance="10"
     guidetolerance="10"
     inkscape:pageopacity="0"
     inkscape:pageshadow="2"
     inkscape:window-width="741"
     inkscape:window-height="480"
     id="namedview14"
     showgrid="false"
     inkscape:zoom="0.12222451"
     inkscape:cx="150.64067"
     inkscape:cy="381.3367"
     inkscape:window-x="1052"
     inkscape:window-y="192"
     inkscape:window-maximized="0"
     inkscape:current-layer="svg12" />
  <path
     d="m165.765625 260.539062c4.140625 0 7.496094-3.355468 7.496094-7.492187v-28.367187c0-4.140626-3.355469-7.496094-7.496094-7.496094s-7.496094 3.355468-7.496094 7.496094v28.367187c0 4.136719 3.355469 7.492187 7.496094 7.492187zm0 0"
     id="path2"
     style="fill:#dbd8a2;fill-opacity:1" />
  <path
     d="m255.796875 260.539062c4.136719 0 7.492187-3.355468 7.492187-7.492187v-28.367187c0-4.140626-3.355468-7.496094-7.492187-7.496094-4.140625 0-7.496094 3.355468-7.496094 7.496094v28.367187c0 4.136719 3.355469 7.492187 7.496094 7.492187zm0 0"
     id="path4"
     style="fill:#dbd8a2;fill-opacity:1" />
  <path
     d="m422.058594 347.976562c0-17.632812-9.65625-33.605468-24.707032-41.945312 1.816407-4.902344 2.757813-10.113281 2.757813-15.398438 0-8.921874-2.726563-17.492187-7.5625-24.683593 12.886719-7.851563 21.519531-22.027344 21.519531-38.195313 0-22.789062-17.152344-41.640625-39.226562-44.347656.011718-2.566406.078125-45.46875-.296875-49.339844-3.464844-35.742187-17.773438-66.414062-42.53125-91.164062-14.523438-14.523438-33.421875-25.664063-56.171875-33.113282-20-6.550781-42.449219-9.941406-64.835938-9.7812495-33.722656-.2539065-66.476562 7.4218755-92.207031 21.5429685-3.628906 1.992188-4.953125 6.550781-2.964844 10.179688 1.992188 3.628906 6.550781 4.953125 10.179688 2.964843 23.539062-12.917968 53.652343-19.929687 84.9375-19.699218h.105469c.472656 0 .9375-.003906 1.40625-.003906 44.132812 0 84.785156 14.351562 108.953124 38.511718 22.230469 22.226563 35.085938 49.820313 38.207032 82.007813.394531 4.035156-1.429688 67.824219-.054688 67.980469-54.007812-6.132813-90.898437-17.703126-112.609375-35.292969-18.03125-14.609375-26.546875-33.5625-28.476562-63.375-.253907-3.945313-3.527344-7.011719-7.476563-7.011719-3.953125 0-7.226562 3.066406-7.480468 7.011719-1.929688 29.8125-10.445313 48.765625-28.472657 63.375-21.707031 17.582031-58.578125 29.152343-112.558593 35.285156v-12.929687c0-18.613282-1.902344-36.601563-.109376-55.046876 2.726563-28.121093 12.917969-52.8125 30.289063-73.394531 2.671875-3.164062 2.269531-7.894531-.894531-10.5625-3.164063-2.671875-7.890625-2.269531-10.558594.890625-19.375 22.953125-30.730469 50.414063-33.757812 81.625-.375 3.871094-.386719 24.785156-.328126 41.648438.007813 2.550781.019532 5.136718.03125 7.710937-21.996093 2.777344-39.070312 21.589844-39.070312 44.332031 0 16.132813 8.601562 30.289063 21.449219 38.144532-4.855469 7.207031-7.59375 15.789062-7.59375 24.734375 0 5.285156.941406 10.496093 2.753906 15.394531-15.050781 8.339844-24.703125 24.3125-24.703125 41.949219 0 24.386719 18.296875 44.582031 41.882812 47.578125-.933593 3.785156-1.414062 7.683594-1.414062 11.597656 0 24.285156 20.609375 46.976562 44.972656 48.234375-6.554687 13.816406-12.273437 29.597656-16.300781 47.464844-.503906 2.222656.035156 4.550781 1.457031 6.332031 1.421875 1.777344 3.574219 2.8125 5.851563 2.8125h268.785156c2.277344 0 4.433594-1.035156 5.855469-2.8125 1.421875-1.78125 1.957031-4.109375 1.457031-6.332031-4.070313-18.039063-9.863281-33.953125-16.496094-47.871094 9.605469-.832031 18.613281-3.195313 27.121094-9.933594 11.492187-9.097656 18.414063-23.226562 18.414063-37.894531 0-3.910156-.480469-7.8125-1.417969-11.597656 23.59375-2.996094 41.890625-23.191406 41.890625-47.582032zm-47.398438-141.085937c.019532-1.71875.042969-3.808594.0625-6.191406.007813-.699219.011719-1.429688.019532-2.164063 13.824218 2.539063 24.335937 14.671875 24.335937 29.21875 0 14.574219-10.554687 26.734375-24.417969 29.238282zm-63.226562 111.691406c13.921875-1.644531 25.953125-4.59375 34.902344-7.304687-13.453126 25.027344-36.527344 43.386718-63.582032 51.0625-18.03125 4.761718-36.15625 3.726562-55.023437 3.726562-14.164063 0-28.328125 0-42.496094 0-12.609375 0-25.585937.425782-38.058594-1.828125-30.417969-6.128906-56.710937-25.539062-71.453125-52.960937 8.949219 2.710937 20.984375 5.660156 34.902344 7.304687 37.785156 4.46875 72.371094-2.851562 100.40625-21.179687 28.035156 18.328125 62.625 25.648437 100.402344 21.179687zm-248.941406-100.011719c58.5625-6.476562 97.441406-18.832031 121.992187-38.722656 13.503906-10.941406 21.601563-23.570312 26.519531-36.3125 4.917969 12.738282 13.015625 25.371094 26.515625 36.3125 24.5625 19.894532 63.457031 32.253906 122.050781 38.726563v42.59375c0 10.65625-1.65625 21.226562-4.816406 31.316406-5.957031 2.378906-23.296875 8.695313-45.535156 11.265625-31.191406 3.609375-58.878906-1.226562-82.503906-14.371094 2.496094-2.132812 4.574218-4.78125 6.035156-7.832031 1.78125-3.734375.203125-8.210937-3.53125-9.996094-3.734375-1.785156-8.210938-.203125-9.996094 3.53125-1.472656 3.082031-4.628906 5.074219-8.039062 5.074219-3.589844 0-6.808594-2.136719-8.207032-5.441406-1.613281-3.8125-6.015624-5.59375-9.824218-3.984375-3.8125 1.613281-5.597656 6.011719-3.984375 9.824219 1.453125 3.433593 3.648437 6.390624 6.339843 8.734374-23.664062 13.207032-51.40625 18.074219-82.667968 14.460938-22.152344-2.558594-39.441406-8.835938-45.457032-11.234375-3.1875-10.046875-4.890624-20.609375-4.890624-31.347656 0-.007813 0-42.597657 0-42.597657zm-39.410157 9.183594c0-14.488281 10.433594-26.585937 24.183594-29.183594.003906.71875.234375 58.421876.234375 58.421876-13.863281-2.503907-24.417969-14.660157-24.417969-29.238282zm40.296875 200.917969c-5.066406-5.980469-7.921875-13.671875-7.921875-21.515625 0-5.464844 1.289063-10.679688 3.828125-15.492188 1.296875-2.460937 1.121094-5.4375-.449218-7.730468-1.570313-2.292969-4.273438-3.535156-7.042969-3.210938-1.316407.152344-2.605469.230469-3.828125.230469-18.183594 0-32.972656-14.792969-32.972656-32.972656 0-14.066407 8.929687-26.59375 22.226562-31.175781 2.144531-.738282 3.839844-2.40625 4.609375-4.539063s.53125-4.5-.644531-6.4375c-2.777344-4.566406-4.242188-9.816406-4.242188-15.191406 0-7.078125 2.601563-13.8125 7.097656-19.050781 1.304688.261718 2.628907.464843 3.972657.609374 4.9375 53.980469 45.730469 97.742188 98.292969 107.203126-6.148438 4.679687-13.316407 10.757812-20.839844 18.40625-10.007813 10.167968-21.664063 24.253906-32.179688 42.589843-11.117187-.304687-21.679687-2.023437-29.90625-11.722656zm165.714844 68.339844h-72.40625c14.335938-7.816407 29.816406-18.125 46.332031-30.855469 3.277344-2.527344 3.886719-7.230469 1.359375-10.511719-2.527344-3.277343-7.230468-3.886719-10.511718-1.359375-28.945313 22.3125-54.183594 36.667969-75.058594 42.726563h-32.777344c11.503906-42.484375 33.054688-71.238281 49.660156-88.230469 15.613282-15.976562 29.738282-24.679688 34.6875-27.484375h80.933594c2.496094 1.414063 7.316406 4.332031 13.507812 8.945313-6.859374 7.109374-19.539062 19.890624-35.414062 34.230468-3.074219 2.773438-3.3125 7.511719-.539062 10.585938 2.773437 3.070312 7.511718 3.3125 10.585937.539062 17.015625-15.371094 30.238281-28.769531 37.019531-35.835937 8.4375 7.503906 17.925782 17.347656 27.070313 29.824219-26.796875 39.226562-66.199219 62.769531-74.449219 67.425781zm27.792969 0c15.996093-11.386719 37.726562-29.53125 55.601562-54.101563 9.164063 14.929688 17.429688 32.847656 23.171875 54.101563zm117.207031-116.058594c-1.226562 0-2.511719-.078125-3.828125-.230469-2.769531-.324218-5.472656.917969-7.042969 3.210938-1.574218 2.292968-1.746094 5.265625-.449218 7.726562 2.539062 4.816406 3.824218 10.03125 3.824218 15.496094 0 8.65625-3.484375 17.101562-9.53125 23.285156-3.183594 3.25-7.019531 5.839844-11.234375 7.5625-5.070312 2.066406-11.140625 2.640625-17.238281 2.71875-9.78125-17.125-22.484375-33.589844-36.761719-47.242187-3.101562-2.960938-6.300781-5.835938-9.589843-8.597657-.976563-.820312-5.613282-5.640624-6.789063-5.433593 52.703125-9.34375 93.640625-53.164063 98.59375-107.242188 1.347656-.140625 2.679687-.34375 3.992187-.601562 4.484376 5.234375 7.078126 11.960937 7.078126 19.03125 0 5.375-1.46875 10.625-4.242188 15.1875-1.175781 1.9375-1.414062 4.304687-.644531 6.4375.769531 2.136719 2.464843 3.804687 4.609375 4.542969 13.292968 4.582031 22.226562 17.109374 22.226562 31.171874 0 18.183594-14.792968 32.976563-32.972656 32.976563zm0 0"
     id="path6"
     style="fill:#dbd8a2;fill-opacity:1" />
  <path
     d="m136.691406 261.417969c0 9.265625-7.511718 16.78125-16.78125 16.78125-9.269531 0-16.78125-7.515625-16.78125-16.78125 0-9.269531 7.511719-16.785157 16.78125-16.785157 9.269532 0 16.78125 7.515626 16.78125 16.785157zm0 0"
     id="path8"
     style="fill:#dbd8a2;fill-opacity:1" />
  <path
     d="m318.933594 261.417969c0 9.265625-7.515625 16.78125-16.785156 16.78125-9.265626 0-16.78125-7.515625-16.78125-16.78125 0-9.269531 7.515624-16.785157 16.78125-16.785157 9.269531 0 16.785156 7.515626 16.785156 16.785157zm0 0"
     id="path10"
     style="fill:#dbd8a2;fill-opacity:1" />
</svg>
