<svg height="511pt" viewBox="1 1 511.99948 511" width="511pt" xmlns="http://www.w3.org/2000/svg"><path d="m440.648438 256.5 63.058593-63.0625c11.054688-11.054688 11.054688-28.980469 0-40.039062-11.058593-11.054688-28.980469-11.054688-40.039062 0l-74.792969 74.796874h-43.304688c-1.628906-5.175781-3.703124-10.191406-6.210937-15.003906l38.921875-38.917968c11.054688-11.054688 11.054688-28.984376 0-40.039063-11.058594-11.054687-28.984375-11.054687-40.039062 0l-38.917969 38.917969c-4.8125-2.511719-9.828125-4.589844-15.003907-6.21875v-43.324219l74.777344-74.777344c11.058594-11.058593 11.058594-28.984375 0-40.039062-11.054687-11.058594-28.980468-11.058594-40.035156 0l-63.0625 63.058593-63.0625-63.058593c-11.054688-11.058594-28.980469-11.058594-40.039062 0-11.054688 11.054687-11.054688 28.980469 0 40.039062l74.796874 74.792969v43.300781c-5.175781 1.632813-10.195312 3.710938-15.011718 6.21875l-38.910156-38.910156c-11.054688-11.054687-28.980469-11.054687-40.039063 0-11.054687 11.054687-11.054687 28.984375 0 40.039063l38.933594 38.929687c-2.511719 4.84375-4.558594 9.863281-6.171875 14.992187h-43.367188l-74.796875-74.796874c-11.058593-11.054688-28.984375-11.054688-40.039062 0-11.058594 11.058593-11.058594 28.984374 0 40.039062l63.0625 63.0625-63.0625 63.058594c-11.058594 11.058594-11.058594 28.984375 0 40.039062 5.527343 5.53125 12.773437 8.292969 20.019531 8.292969 7.242188 0 14.492188-2.765625 20.019531-8.292969l74.78125-74.78125h43.386719c1.613281 5.128906 3.660156 10.148438 6.171875 14.988282l-38.9375 38.9375c-11.054687 11.054687-11.054687 28.980468 0 40.035156 5.527344 5.53125 12.773437 8.292968 20.019531 8.292968s14.492188-2.765624 20.019532-8.292968l38.921874-38.917969c4.804688 2.503906 9.816407 4.578125 14.984376 6.207031l.011718 43.308594-74.792968 74.792969c-11.054688 11.054687-11.054688 28.980469 0 40.039062 11.058593 11.054688 28.984374 11.054688 40.039062 0l63.0625-63.0625 63.058594 63.0625c5.53125 5.527344 12.773437 8.292969 20.019531 8.292969s14.492187-2.765625 20.019531-8.292969c11.054688-11.058593 11.054688-28.984375 0-40.039062l-74.78125-74.785157-.011718-43.3125c5.175781-1.628906 10.195312-3.707031 15.007812-6.21875l38.929688 38.929688c5.527343 5.527344 12.773437 8.292969 20.019531 8.292969 7.246093 0 14.488281-2.765625 20.015625-8.292969 11.058594-11.058594 11.058594-28.984375 0-40.039062l-38.925782-38.925782c2.507813-4.8125 4.585938-9.824218 6.214844-14.996094h43.320313l74.78125 74.78125c5.527343 5.527344 12.773437 8.292969 20.019531 8.292969 7.242188-.003906 14.492188-2.765625 20.019531-8.292969 11.054688-11.058593 11.054688-28.984374 0-40.039062zm-158.285157 26.363281c-.007812.011719-.015625.019531-.027343.027344-7.039063 7.027344-16.390626 10.894531-26.335938 10.894531-9.867188 0-19.148438-3.8125-26.167969-10.730468-.0625-.0625-.117187-.128907-.179687-.191407s-.128906-.121093-.195313-.183593c-14.355469-14.554688-14.300781-38.070313.175781-52.546876 7.042969-7.042968 16.40625-10.921874 26.367188-10.921874 9.875 0 19.164062 3.820312 26.1875 10.753906.058594.0625.117188.125.175781.1875.058594.058594.121094.109375.179688.167968 6.925781 7.023438 10.742187 16.304688 10.742187 26.179688 0 9.945312-3.867187 19.296875-10.894531 26.335938-.007813.011718-.015625.019531-.027344.027343zm0 0" fill="#dae6ed"/></svg>