<?xml version="1.0" encoding="UTF-8" standalone="no"?>
<svg
   xmlns:dc="http://purl.org/dc/elements/1.1/"
   xmlns:cc="http://creativecommons.org/ns#"
   xmlns:rdf="http://www.w3.org/1999/02/22-rdf-syntax-ns#"
   xmlns:svg="http://www.w3.org/2000/svg"
   xmlns="http://www.w3.org/2000/svg"
   xmlns:sodipodi="http://sodipodi.sourceforge.net/DTD/sodipodi-0.dtd"
   xmlns:inkscape="http://www.inkscape.org/namespaces/inkscape"
   height="32pt"
   viewBox="-47 0 32 32.000006"
   width="32pt"
   id="svg4236"
   version="1.1"
   inkscape:version="0.91 r13725"
   sodipodi:docname="sock-sm.svg">
  <metadata
     id="metadata4266">
    <rdf:RDF>
      <cc:Work
         rdf:about="">
        <dc:format>image/svg+xml</dc:format>
        <dc:type
           rdf:resource="http://purl.org/dc/dcmitype/StillImage" />
        <dc:title></dc:title>
      </cc:Work>
    </rdf:RDF>
  </metadata>
  <defs
     id="defs4264" />
  <sodipodi:namedview
     pagecolor="#ffffff"
     bordercolor="#666666"
     borderopacity="1"
     objecttolerance="10"
     gridtolerance="10"
     guidetolerance="10"
     inkscape:pageopacity="0"
     inkscape:pageshadow="2"
     inkscape:window-width="1325"
     inkscape:window-height="747"
     id="namedview4262"
     showgrid="false"
     inkscape:zoom="7.3"
     inkscape:cx="28.665138"
     inkscape:cy="21.013585"
     inkscape:window-x="41"
     inkscape:window-y="21"
     inkscape:window-maximized="1"
     inkscape:current-layer="svg4236" />
  <g
     id="g4342">
    <path
       style="fill:#ef5361"
       inkscape:connector-curvature="0"
       id="path4238"
       d="m -19.291731,23.170998 c 0,1.519782 -0.408909,3.05726 -1.266603,4.444673 -2.45959,3.974886 -7.674886,5.203734 -11.650009,2.744147 l -2.750521,-1.701466 -5.316995,-3.289673 c -1.169627,-0.723436 -1.881498,-2.000185 -1.881498,-3.375564 l 0,-12.5537127 16.926419,0 0,5.3339827 1.927748,1.192278 c 2.58771,1.601184 4.011459,4.370818 4.011459,7.205335 z m 0,0" />
    <path
       style="fill:#dc4250"
       inkscape:connector-curvature="0"
       id="path4240"
       d="m -25.230938,8.2282479 0,2.8288571 -16.926419,0 0,-1.6177027 z m 0,0" />
    <path
       style="fill:#beccd3"
       inkscape:connector-curvature="0"
       id="path4242"
       d="m -23.249629,2.1986704 0,5.7428924 c 0,0.8274919 -0.670819,1.4978395 -1.498311,1.4978395 l -18.341674,0 c -0.827492,0 -1.498311,-0.6703476 -1.498311,-1.4978395 l 0,-5.7428924 c 0,-0.8274891 0.670819,-1.49830855 1.498311,-1.49830855 l 18.341674,0 c 0.827492,0 1.498311,0.67081945 1.498311,1.49830855 z m 0,0" />
    <path
       style="fill:#dae6ed"
       inkscape:connector-curvature="0"
       id="path4244"
       d="m -23.249629,2.1986704 0,5.7428924 c 0,0.8274919 -0.670819,1.4978395 -1.498311,1.4978395 l -15.356852,0 c -0.827492,0 -1.498307,-0.6703476 -1.498307,-1.4978395 l 0,-5.7428924 c 0,-0.8274891 0.670815,-1.49830855 1.498307,-1.49830855 l 15.356852,0 c 0.827492,0 1.498311,0.67081945 1.498311,1.49830855 z m 0,0" />
    <path
       style="fill:#dae6ed"
       inkscape:connector-curvature="0"
       id="path4246"
       d="m -33.694149,24.205423 c 0,1.633511 -0.462471,3.159664 -1.264715,4.452929 l -5.316995,-3.289673 c -1.169627,-0.723436 -1.881498,-2.000185 -1.881498,-3.375564 l 0,-6.250196 6.21e-4,-6.21e-4 c 4.673783,0 8.462504,3.788717 8.462504,8.463208 z m 0,0" />
    <g
       style="fill:#ef5361"
       transform="matrix(0.06040431,0,0,0.06040431,-44.587925,0.70036185)"
       id="g4248">
      <path
         inkscape:connector-curvature="0"
         id="path4250"
         d="m 66.992188,69.871094 c -2.003907,0 -4.011719,-0.765625 -5.539063,-2.296875 L 35.40625,41.53125 c -3.058594,-3.058594 -3.058594,-8.019531 0,-11.082031 3.0625,-3.058594 8.023438,-3.058594 11.082031,0 l 20.503907,20.503906 20.5,-20.503906 c 3.0625,-3.058594 8.023437,-3.058594 11.082031,0 3.062501,3.0625 3.062501,8.023437 0,11.082031 L 72.53125,67.574219 c -1.527344,1.53125 -3.535156,2.296875 -5.539062,2.296875 z m 0,0" />
      <path
         inkscape:connector-curvature="0"
         id="path4252"
         d="m 66.992188,116.51953 c -2.003907,0 -4.011719,-0.76172 -5.539063,-2.29297 L 35.40625,88.183594 c -3.058594,-3.0625 -3.058594,-8.023438 0,-11.082032 3.0625,-3.0625 8.023438,-3.0625 11.082031,0 l 20.503907,20.5 20.5,-20.5 c 3.0625,-3.0625 8.023437,-3.0625 11.082031,0 3.062501,3.058594 3.062501,8.019532 0,11.082032 L 72.53125,114.22656 c -1.527344,1.53125 -3.535156,2.29297 -5.539062,2.29297 z m 0,0" />
      <path
         inkscape:connector-curvature="0"
         id="path4254"
         d="m 175.42969,69.871094 c -2.00782,0 -4.01172,-0.765625 -5.54297,-2.296875 L 143.84375,41.53125 c -3.05859,-3.058594 -3.05859,-8.019531 0,-11.082031 3.0625,-3.058594 8.02344,-3.058594 11.08203,0 l 20.50391,20.503906 20.5,-20.503906 c 3.0625,-3.058594 8.02343,-3.058594 11.08203,0 3.0625,3.0625 3.0625,8.023437 0,11.082031 l -26.04297,26.042969 c -1.52734,1.53125 -3.53516,2.296875 -5.53906,2.296875 z m 0,0" />
      <path
         inkscape:connector-curvature="0"
         id="path4256"
         d="m 175.42969,116.51953 c -2.00782,0 -4.01172,-0.76172 -5.54297,-2.29297 L 143.84375,88.183594 c -3.05859,-3.0625 -3.05859,-8.023438 0,-11.082032 3.0625,-3.0625 8.02344,-3.0625 11.08203,0 l 20.50391,20.5 20.5,-20.5 c 3.0625,-3.0625 8.02343,-3.0625 11.08203,0 3.0625,3.058594 3.0625,8.019532 0,11.082032 l -26.04297,26.042966 c -1.52734,1.53125 -3.53516,2.29297 -5.53906,2.29297 z m 0,0" />
      <path
         inkscape:connector-curvature="0"
         id="path4258"
         d="m 283.86328,69.871094 c -2.00391,0 -4.01172,-0.765625 -5.54297,-2.296875 L 252.27734,41.53125 c -3.0625,-3.058594 -3.0625,-8.023438 0,-11.082031 3.0625,-3.058594 8.02344,-3.058594 11.08203,0 l 20.50391,20.5 20.5,-20.5 c 3.0625,-3.058594 8.02344,-3.058594 11.08203,0 3.0625,3.058593 3.0625,8.023437 0,11.082031 l -26.04297,26.042969 c -1.52734,1.53125 -3.53515,2.296875 -5.53906,2.296875 z m 0,0" />
      <path
         inkscape:connector-curvature="0"
         id="path4260"
         d="m 283.86328,116.51953 c -2.07812,0 -4.07031,-0.82422 -5.54297,-2.29297 L 252.27734,88.183594 c -3.0625,-3.0625 -3.0625,-8.023438 0,-11.085938 3.0625,-3.058594 8.02344,-3.058594 11.08203,0 l 20.50391,20.503906 20.5,-20.503906 c 3.0625,-3.058594 8.02344,-3.058594 11.08203,0 3.0625,3.0625 3.0625,8.023438 0,11.085938 l -26.04297,26.042966 c -1.46875,1.46875 -3.46093,2.29297 -5.53906,2.29297 z m 0,0" />
    </g>
  </g>
</svg>
