<?xml version="1.0" encoding="UTF-8" standalone="no"?>
<svg
   xmlns:dc="http://purl.org/dc/elements/1.1/"
   xmlns:cc="http://creativecommons.org/ns#"
   xmlns:rdf="http://www.w3.org/1999/02/22-rdf-syntax-ns#"
   xmlns:svg="http://www.w3.org/2000/svg"
   xmlns="http://www.w3.org/2000/svg"
   xmlns:sodipodi="http://sodipodi.sourceforge.net/DTD/sodipodi-0.dtd"
   xmlns:inkscape="http://www.inkscape.org/namespaces/inkscape"
   height="32pt"
   viewBox="0 -2 32.062561 32"
   width="32pt"
   id="svg2"
   version="1.1"
   inkscape:version="0.91 r13725"
   sodipodi:docname="048-star-1-sm.svg">
  <metadata
     id="metadata28">
    <rdf:RDF>
      <cc:Work
         rdf:about="">
        <dc:format>image/svg+xml</dc:format>
        <dc:type
           rdf:resource="http://purl.org/dc/dcmitype/StillImage" />
        <dc:title></dc:title>
      </cc:Work>
    </rdf:RDF>
  </metadata>
  <defs
     id="defs26" />
  <sodipodi:namedview
     pagecolor="#ffffff"
     bordercolor="#666666"
     borderopacity="1"
     objecttolerance="10"
     gridtolerance="10"
     guidetolerance="10"
     inkscape:pageopacity="0"
     inkscape:pageshadow="2"
     inkscape:window-width="1218"
     inkscape:window-height="680"
     id="namedview24"
     showgrid="false"
     inkscape:zoom="8.7684008"
     inkscape:cx="40.152307"
     inkscape:cy="28.087788"
     inkscape:window-x="50"
     inkscape:window-y="30"
     inkscape:window-maximized="0"
     inkscape:current-layer="svg2" />
  <g
     id="g4156"
     transform="matrix(0.06082073,0,0,0.06082073,0.32826653,-1.2139738)">
    <path
       id="path4"
       d="m 509.36328,230.83203 c -0.0117,0.043 -0.0352,0.0742 -0.0547,0.11719 -5.03515,9.89844 -17.3164,15.21875 -38.14453,9.28125 -135.48047,-38.60156 -232.05859,37.80859 -232.05859,37.80859 0,0 -39.70703,50.78516 -39.70703,93.80469 0,43.01172 -113.132815,-27.08594 -113.132815,-27.08594 0,0 -12.875,-36.82812 -12.875,-86.98828 0,0 8.363281,-168.910155 212.941405,-236.859374 52.625,-17.488281 181.50781,-36.734375 181.50781,2.78125 0,31.972656 -58.77734,20.648438 -58.77734,45.601563 0,0 91.35547,7.085937 91.35547,43.574221 0,36.16015 -79.32031,13.57422 -80.71094,38.83594 -0.0117,0.22265 -0.0195,0.44531 -0.0195,0.67968 0,0 50.98828,8.10547 76.48047,32.42188 14.22265,13.57422 19.51562,33.44922 13.19531,46.02734 z m 0,0"
       inkscape:connector-curvature="0"
       style="fill:#dae6ed" />
    <path
       id="path6"
       d="m 467.83203,23.691406 c 0,8.964844 -4.60937,14.53125 -11.25781,18.4375 C 414.27344,40.292969 353.56641,51.636719 321.37891,62.335938 116.8125,130.28516 108.44141,299.19531 108.44141,299.19531 c 0,24.76172 3.13281,46.26953 6.32031,61.70703 -16.347658,-8.61718 -28.500001,-16.14843 -28.500001,-16.14843 0,0 -12.875,-36.82813 -12.875,-86.98829 0,0 8.371093,-168.906245 212.937501,-236.85937 52.625,-17.472656 181.50781,-36.734375 181.50781,2.785156 z m 0,0"
       inkscape:connector-curvature="0"
       style="fill:#beccd3" />
    <path
       id="path8"
       d="m 165.5625,237.10547 29.35547,59.48047 c 3.01953,6.11718 8.85937,10.35937 15.61328,11.33984 l 65.64062,9.53906 c 17.00391,2.46875 23.79297,23.3711 11.48829,35.36328 l -47.4961,46.30079 c -4.88672,4.76172 -7.11718,11.625 -5.96093,18.35156 l 11.21093,65.375 c 2.90625,16.9375 -14.87109,29.85156 -30.08203,21.85547 l -58.71094,-30.86719 c -6.03906,-3.17187 -13.25781,-3.17187 -19.29687,0 L 78.613281,504.71094 C 63.402344,512.70703 45.628906,499.79297 48.53125,482.85547 l 11.214844,-65.375 c 1.152344,-6.72656 -1.078125,-13.58984 -5.964844,-18.35156 L 6.285156,352.82813 C -6.019531,340.83594 0.769531,319.93359 17.773438,317.46484 l 65.640624,-9.53906 c 6.753907,-0.98047 12.589844,-5.22265 15.613282,-11.33984 l 29.355466,-59.48047 c 7.60157,-15.41016 29.57813,-15.41016 37.17969,0 z m 0,0"
       inkscape:connector-curvature="0"
       style="fill:#ffe66b" />
    <path
       id="path10"
       d="m 166.12891,238.25391 c -4.38672,1.78515 -8.24219,5.12109 -10.65625,10.00781 l -29.35938,59.48437 c -3.01562,6.11719 -8.85937,10.35547 -15.60547,11.33594 l -65.644529,9.53906 c -17.007812,2.47266 -23.796875,23.36719 -11.484375,35.35938 l 47.492188,46.30469 c 4.886718,4.75781 7.117187,11.62109 5.960937,18.35546 L 75.625,494.01172 c -0.710938,4.16406 -0.179688,8.08594 1.261719,11.51562 -14.796875,6.20313 -31.152344,-6.375 -28.351563,-22.66797 l 11.207032,-65.37109 c 1.160156,-6.73437 -1.070313,-13.59766 -5.957032,-18.35547 L 6.292969,352.82813 c -12.3125,-11.99219 -5.515625,-32.88672 11.480469,-35.36329 l 65.648437,-9.53906 c 6.753906,-0.97656 12.585937,-5.21484 15.605469,-11.33203 l 29.359376,-59.48828 c 7.60547,-15.40234 29.57422,-15.40234 37.17969,0 z m 0,0"
       inkscape:connector-curvature="0"
       style="fill:#f79e31" />
    <path
       id="path12"
       d="m 108.44531,389.03906 c -4.40234,0 -7.96875,-3.57031 -7.96875,-7.96875 l 0,-24.43359 c 0,-4.39844 3.56641,-7.96485 7.96875,-7.96485 4.39844,0 7.96485,3.56641 7.96485,7.96485 l 0,24.43359 c 0,4.39844 -3.56641,7.96875 -7.96485,7.96875 z m 0,0"
       inkscape:connector-curvature="0"
       style="fill:#4c4c4c" />
    <path
       id="path14"
       d="m 185.98828,389.03906 c -4.39844,0 -7.96875,-3.57031 -7.96875,-7.96875 l 0,-24.43359 c 0,-4.39844 3.57031,-7.96485 7.96875,-7.96485 4.39844,0 7.96484,3.56641 7.96484,7.96485 l 0,24.43359 c 0,4.39844 -3.5664,7.96875 -7.96484,7.96875 z m 0,0"
       inkscape:connector-curvature="0"
       style="fill:#4c4c4c" />
    <path
       id="path16"
       d="m 146.97266,421.30469 c -10.19922,0 -20.40235,-3.88282 -28.16797,-11.64844 -3.10938,-3.11328 -3.10938,-8.15625 0,-11.26953 3.11328,-3.10938 8.15625,-3.10938 11.26562,0 9.32031,9.32031 24.48438,9.32031 33.80078,0 3.11328,-3.10938 8.15625,-3.10938 11.26563,0 3.11328,3.11328 3.11328,8.15625 0,11.26953 -7.76172,7.76562 -17.96485,11.64844 -28.16406,11.64844 z m 0,0"
       inkscape:connector-curvature="0"
       style="fill:#ef5361" />
    <g
       id="g18"
       style="fill:#beccd3">
      <path
         id="path20"
         d="m 500.41797,112.86719 c 0,-15.296878 -85.05078,-13.871096 -111.38672,-13.062502 -6.96875,0.210942 -13.00781,-5.277344 -12.95313,-12.246094 0.0586,-7.257813 6.47266,-15.492188 32.98438,-18.261719 0,-0.0039 91.35547,7.082031 91.35547,43.570315 z m 0,0"
         inkscape:connector-curvature="0" />
      <path
         id="path22"
         d="m 509.36328,230.83203 c 9.01953,-18.78125 -51.19922,-52.02344 -99.14844,-62.61719 -7.60937,-1.67968 -7.76172,-12.42187 -0.22656,-14.39843 3.01563,-0.79297 6.25781,-1.51172 9.71875,-2.11329 -0.0117,0.22266 -0.0195,0.44532 -0.0195,0.67969 0,0 50.98828,8.10547 76.48047,32.42188 14.22265,13.57422 19.51562,33.44922 13.19531,46.02734 z m 0,0"
         inkscape:connector-curvature="0" />
    </g>
  </g>
</svg>
